<?xml version="1.0" encoding="utf-8"?>
<!-- Generator: Adobe Illustrator 16.0.0, SVG Export Plug-In . SVG Version: 6.00 Build 0)  -->
<!DOCTYPE svg PUBLIC "-//W3C//DTD SVG 1.1//EN" "http://www.w3.org/Graphics/SVG/1.1/DTD/svg11.dtd">
<svg version="1.1" xmlns="http://www.w3.org/2000/svg" xmlns:xlink="http://www.w3.org/1999/xlink" x="0px" y="0px" width="600px"
	 height="980px" viewBox="0 0 1400 980" enable-background="new 0 0 1400 980" xml:space="preserve">
<g id="BACKGROUND">
	<rect x="-0.5" y="0.5" fill="#FFFFFF" stroke="#000000" stroke-miterlimit="10" width="1400" height="980"/>
</g>
<g id="OBJECT">
	<g>
		<g>
			<defs>
				<polygon id="SVGID_1_" points="1264.478,814.359 1279.875,648.965 1272.698,236.013 1234,204.236 1234,100.456 401.416,79.118 
					278.096,125.121 144,135.373 144,707.62 177,773.574 177,856.017 377.274,892 1271.994,892 				"/>
			</defs>
			<clipPath id="SVGID_2_">
				<use xlink:href="#SVGID_1_"  overflow="visible"/>
			</clipPath>
			<rect x="21" y="5" clip-path="url(#SVGID_2_)" fill="#55A2F2" width="1358" height="950"/>
			<path clip-path="url(#SVGID_2_)" fill="none" stroke="#FDF6E4" stroke-miterlimit="10" d="M868.148,77.66
				c33.48,13.725,68.59,47.282,95.537,71.773c26.885,24.434,51.561,50.466,76.623,77.006
				c40.659,43.056,79.338,87.086,126.756,124.049c-6.246-27.95-21.264-45.37-41.206-65.661
				c-26.077-26.532-38.164-50.491-54.029-82.974c-9.046-18.523-22.947-31.751-38.887-44.799
				c-15.887-13.007-21.293-23.679-31.423-41.275c-12.217-21.22-43.138-57.081-67.418-61.397"/>
			<path clip-path="url(#SVGID_2_)" fill="none" stroke="#FDF6E4" stroke-miterlimit="10" d="M1071.829,75.72
				c34.673,33.033,63.798,69.334,92.524,106.697c21.807,28.363,48.152,54.483,69.703,81.311
				c-9.248-18.327-17.35-38.966-28.818-55.72c-12.264-17.912-26.898-27.292-32.062-48.73
				c-10.486-43.544-29.527-85.541-78.068-95.196"/>
			<path clip-path="url(#SVGID_2_)" fill="none" stroke="#FDF6E4" stroke-miterlimit="10" d="M125.196,143.614
				c31.493,22.449,53.016,64.245,58.143,102.41c5.124,38.137,18.835,56.966,44.229,85.752
				c32.973,37.375,55.865,91.447,93.688,123.462c-1.24-37.233-19.111-58.579-38.503-88.552
				c-21.229-32.811-8.508-65.818-18.322-100.433c-7.626-26.898-33.471-51.408-46.071-78.024
				c-10.202-21.546-30.519-72.075-58.247-73.713"/>
			<g clip-path="url(#SVGID_2_)">
				<path fill="#7FBDF4" d="M1377,461.745v-93.111c0,0-71.689,1.94-102.316,0c-30.629-1.94-108.013-16.498-123.531-11.159
					s-58.09,18.918-85.247,18.918c-27.158,0-98.878-9.699-135.735-5.819c-36.857,3.879-235.902,3.879-235.902,3.879
					s-427.478,0-474.033,5.82c-46.556,5.819-136.413,31.037-148.052,27.157C60.543,403.55,25,395.052,25,395.052v129.737
					L1377,461.745z"/>
				<path fill="#2D346B" d="M1377,518.97v-93.112c0,0-71.689,1.94-102.316,0c-30.629-1.939-108.013-16.498-123.531-11.159
					c-15.519,5.339-58.09,18.918-85.247,18.918c-27.158,0-98.878-9.699-135.735-5.819c-36.857,3.88-235.902,3.88-235.902,3.88
					s-427.478,0-474.033,5.819S83.821,468.534,72.183,464.654C60.543,460.775,25,452.276,25,452.276v129.737L1377,518.97z"/>
				<rect x="21" y="505" fill="#186EB5" width="1358" height="450"/>
				<path fill="#FDF6E4" d="M21.174,479.62c0,0,141.308-36.867,195.073-39.092c53.766-2.225,113.167,29.842,176.883,14.891
					s507.342-37.977,507.342-37.977s153.884-2.913,175.222-3.545c21.338-0.632,55.617,38.964,78.896,32.741
					c23.277-6.223,223.411-26.02,223.411-26.02v133.269c0,0-50.361,25.477-99.905,14.193
					c-49.543-11.284-53.222,20.033-105.597,16.014s-136.114-10.217-205.521-14.501c-69.404-4.284-555.157,8.849-612.171,26.153
					c-57.016,17.305-144.283,28.943-171.44,21.185c-27.157-7.76-161.963,0-161.963,0L21.174,479.62z"/>
				<path fill="none" stroke="#2D346B" stroke-miterlimit="10" d="M26.266,599.472c11.903,6.295,41.462-4.299,56.161-5.926
					c23.114-2.559,46.856-1.833,70.403-1.833c44.97,0,89.053,0.678,132.939-5.381c102.746-14.185,203.783-35.418,307.445-45.055
					c125.618-11.678,249.959,0.571,376.28,1.939c46.634,0.506,93.512,7.451,140.009,9.699c19.721,0.954,43.953,2.667,63.341-0.432
					c19.072-3.047,33.624-16.791,51.898-21.438c24.008-6.104,50.769,2.501,75.653,2.472c28.019-0.032,56.264-2.894,83.744-1.94"/>
				<path fill="none" stroke="#2D346B" stroke-miterlimit="10" d="M117.438,440.407c10.21,8.87,22.801,23.943,34.917,29.097"/>
				<path fill="none" stroke="#2D346B" stroke-miterlimit="10" d="M165.933,442.347c4.921,2.815,8.975,6.844,11.64,11.639"/>
				<path fill="none" stroke="#2D346B" stroke-miterlimit="10" d="M220.248,461.745c3.603,5.368,7.498,10.562,11.639,15.519"/>
				<path fill="none" stroke="#2D346B" stroke-miterlimit="10" d="M195.03,490.842c1.154,4.939,3.131,9.52,5.819,13.579"/>
				<path fill="none" stroke="#2D346B" stroke-miterlimit="10" d="M115.497,483.083c1.846,5.039,6.167,7.973,11.64,7.759"/>
				<path fill="none" stroke="#2D346B" stroke-miterlimit="10" d="M1120.324,444.286c-6.68-7.697-9.607-16.649-15.518-25.217"/>
				<path fill="none" stroke="#2D346B" stroke-miterlimit="10" d="M1203.736,426.828c6.135,9.525,12.033,20.99,17.459,31.037"/>
				<path fill="none" stroke="#2D346B" stroke-miterlimit="10" d="M1296.849,421.009c3.056,10.199,1.944,21.97,1.939,32.977"/>
				<path fill="none" stroke="#2D346B" stroke-miterlimit="10" d="M1327.886,467.564c3.888,6.383,4.961,13.929,3.88,21.338"/>
				<path fill="none" stroke="#2D346B" stroke-miterlimit="10" d="M1271.631,465.625c-1.75,3.688-2.394,7.536-1.939,11.639"/>
				<path fill="none" stroke="#2D346B" stroke-miterlimit="10" d="M1182.398,463.685c-0.25,4.887-1.524,9.343-3.879,13.579"/>
				<path fill="none" stroke="#2D346B" stroke-miterlimit="10" d="M1066.01,407.43c2.633,6.525,6.398,13.165,9.699,19.398"/>
			</g>
			<g opacity="0.6" clip-path="url(#SVGID_2_)">
				<g>
					<g>
						<circle fill="#55A2F2" cx="123.68" cy="655.055" r="18.852"/>
						<circle fill="#55A2F2" cx="194.483" cy="655.055" r="18.852"/>
						<circle fill="#55A2F2" cx="265.287" cy="655.055" r="18.852"/>
						<circle fill="#55A2F2" cx="336.091" cy="655.055" r="18.852"/>
						<circle fill="#55A2F2" cx="406.894" cy="655.055" r="18.852"/>
						<circle fill="#55A2F2" cx="477.697" cy="655.055" r="18.852"/>
						<circle fill="#55A2F2" cx="548.501" cy="655.055" r="18.852"/>
						<circle fill="#55A2F2" cx="619.305" cy="655.055" r="18.852"/>
						<circle fill="#55A2F2" cx="690.107" cy="655.055" r="18.852"/>
					</g>
					<g>
						<circle fill="#55A2F2" cx="754.122" cy="655.055" r="18.852"/>
						<circle fill="#55A2F2" cx="824.926" cy="655.055" r="18.852"/>
						<circle fill="#55A2F2" cx="895.729" cy="655.055" r="18.852"/>
						<circle fill="#55A2F2" cx="966.532" cy="655.055" r="18.852"/>
						<circle fill="#55A2F2" cx="1037.336" cy="655.055" r="18.852"/>
						<circle fill="#55A2F2" cx="1108.139" cy="655.055" r="18.852"/>
						<circle fill="#55A2F2" cx="1178.943" cy="655.055" r="18.852"/>
						<circle fill="#55A2F2" cx="1249.746" cy="655.055" r="18.852"/>
						<circle fill="#55A2F2" cx="1320.549" cy="655.055" r="18.852"/>
					</g>
				</g>
				<g>
					<g>
						<circle fill="#55A2F2" cx="123.68" cy="878.134" r="18.852"/>
						<circle fill="#55A2F2" cx="194.483" cy="878.134" r="18.852"/>
						<circle fill="#55A2F2" cx="265.287" cy="878.134" r="18.852"/>
						<circle fill="#55A2F2" cx="336.091" cy="878.134" r="18.852"/>
						<circle fill="#55A2F2" cx="406.894" cy="878.134" r="18.852"/>
						<circle fill="#55A2F2" cx="477.697" cy="878.134" r="18.852"/>
						<circle fill="#55A2F2" cx="548.501" cy="878.134" r="18.852"/>
						<circle fill="#55A2F2" cx="619.305" cy="878.134" r="18.852"/>
						<circle fill="#55A2F2" cx="690.107" cy="878.134" r="18.852"/>
					</g>
					<g>
						<circle fill="#55A2F2" cx="754.122" cy="878.134" r="18.852"/>
						<circle fill="#55A2F2" cx="824.926" cy="878.134" r="18.852"/>
						<circle fill="#55A2F2" cx="895.729" cy="878.134" r="18.852"/>
						<circle fill="#55A2F2" cx="966.532" cy="878.134" r="18.852"/>
						<circle fill="#55A2F2" cx="1037.336" cy="878.134" r="18.852"/>
						<circle fill="#55A2F2" cx="1108.139" cy="878.134" r="18.852"/>
						<circle fill="#55A2F2" cx="1178.943" cy="878.134" r="18.852"/>
						<circle fill="#55A2F2" cx="1249.746" cy="878.134" r="18.852"/>
						<circle fill="#55A2F2" cx="1320.549" cy="878.134" r="18.852"/>
					</g>
				</g>
				<g>
					<g>
						<circle fill="#55A2F2" cx="162.477" cy="714.219" r="18.852"/>
						<circle fill="#55A2F2" cx="233.28" cy="714.219" r="18.852"/>
						<circle fill="#55A2F2" cx="304.083" cy="714.219" r="18.852"/>
						<circle fill="#55A2F2" cx="374.887" cy="714.219" r="18.852"/>
						<circle fill="#55A2F2" cx="445.69" cy="714.219" r="18.852"/>
						<circle fill="#55A2F2" cx="516.494" cy="714.219" r="18.852"/>
						<circle fill="#55A2F2" cx="587.297" cy="714.219" r="18.852"/>
						<circle fill="#55A2F2" cx="658.101" cy="714.219" r="18.852"/>
						<circle fill="#55A2F2" cx="728.904" cy="714.219" r="18.852"/>
					</g>
					<g>
						<circle fill="#55A2F2" cx="792.918" cy="714.219" r="18.852"/>
						<circle fill="#55A2F2" cx="863.722" cy="714.219" r="18.852"/>
						<circle fill="#55A2F2" cx="934.525" cy="714.219" r="18.852"/>
						<circle fill="#55A2F2" cx="1005.329" cy="714.219" r="18.852"/>
						<circle fill="#55A2F2" cx="1076.132" cy="714.219" r="18.852"/>
						<circle fill="#55A2F2" cx="1146.936" cy="714.219" r="18.852"/>
						<circle fill="#55A2F2" cx="1217.739" cy="714.219" r="18.852"/>
						<circle fill="#55A2F2" cx="1288.543" cy="714.219" r="18.852"/>
						<circle fill="#55A2F2" cx="1359.346" cy="714.219" r="18.852"/>
					</g>
				</g>
				<g>
					<g>
						<circle fill="#55A2F2" cx="123.68" cy="771.443" r="18.852"/>
						<circle fill="#55A2F2" cx="194.483" cy="771.443" r="18.852"/>
						<circle fill="#55A2F2" cx="265.287" cy="771.443" r="18.852"/>
						<circle fill="#55A2F2" cx="336.091" cy="771.443" r="18.852"/>
						<circle fill="#55A2F2" cx="406.894" cy="771.443" r="18.852"/>
						<circle fill="#55A2F2" cx="477.697" cy="771.443" r="18.852"/>
						<circle fill="#55A2F2" cx="548.501" cy="771.443" r="18.852"/>
						<circle fill="#55A2F2" cx="619.305" cy="771.443" r="18.852"/>
						<circle fill="#55A2F2" cx="690.107" cy="771.443" r="18.852"/>
					</g>
					<g>
						<circle fill="#55A2F2" cx="754.122" cy="771.443" r="18.852"/>
						<circle fill="#55A2F2" cx="824.926" cy="771.443" r="18.852"/>
						<circle fill="#55A2F2" cx="895.729" cy="771.443" r="18.852"/>
						<circle fill="#55A2F2" cx="966.532" cy="771.443" r="18.852"/>
						<circle fill="#55A2F2" cx="1037.336" cy="771.443" r="18.852"/>
						<circle fill="#55A2F2" cx="1108.139" cy="771.443" r="18.852"/>
						<circle fill="#55A2F2" cx="1178.943" cy="771.443" r="18.852"/>
						<circle fill="#55A2F2" cx="1249.746" cy="771.443" r="18.852"/>
						<circle fill="#55A2F2" cx="1320.549" cy="771.443" r="18.852"/>
					</g>
				</g>
				<g>
					<g>
						<circle fill="#55A2F2" cx="162.477" cy="830.608" r="18.852"/>
						<circle fill="#55A2F2" cx="233.28" cy="830.608" r="18.852"/>
						<circle fill="#55A2F2" cx="304.083" cy="830.608" r="18.852"/>
						<circle fill="#55A2F2" cx="374.887" cy="830.608" r="18.852"/>
						<circle fill="#55A2F2" cx="445.69" cy="830.608" r="18.852"/>
						<circle fill="#55A2F2" cx="516.494" cy="830.608" r="18.852"/>
						<circle fill="#55A2F2" cx="587.297" cy="830.608" r="18.852"/>
						<circle fill="#55A2F2" cx="658.101" cy="830.608" r="18.852"/>
						<circle fill="#55A2F2" cx="728.904" cy="830.608" r="18.852"/>
					</g>
					<g>
						<circle fill="#55A2F2" cx="792.918" cy="830.608" r="18.852"/>
						<circle fill="#55A2F2" cx="863.722" cy="830.608" r="18.852"/>
						<circle fill="#55A2F2" cx="934.525" cy="830.608" r="18.852"/>
						<circle fill="#55A2F2" cx="1005.329" cy="830.608" r="18.852"/>
						<circle fill="#55A2F2" cx="1076.132" cy="830.608" r="18.852"/>
						<circle fill="#55A2F2" cx="1146.936" cy="830.608" r="18.852"/>
						<circle fill="#55A2F2" cx="1217.739" cy="830.608" r="18.852"/>
						<circle fill="#55A2F2" cx="1288.543" cy="830.608" r="18.852"/>
						<circle fill="#55A2F2" cx="1359.346" cy="830.608" r="18.852"/>
					</g>
				</g>
			</g>
			<polygon clip-path="url(#SVGID_2_)" fill="#186EB5" points="412.29,611.175 357.975,854.812 493.763,852.082 478.244,596.138 			
				"/>
			<polygon clip-path="url(#SVGID_2_)" fill="#12669E" points="856.308,569.379 1158.98,955 751.759,955 743.227,583.772 			"/>
			<g clip-path="url(#SVGID_2_)">
				<path fill="#DDA8B0" d="M327.832,201.733c0,0-61.028,60.819-62.969,124.529c-1.939,63.709,11.64,164.088,11.64,195.371
					s13.203,95.498,39.578,104.127c26.376,8.629,140.427-192.548,128.017-208.349c-12.409-15.801-89.242-181.087-89.242-181.087
					L327.832,201.733z"/>
				<path fill="#E66AAA" d="M327.832,201.733c0,0-10.071,96.2-14.435,132.57c-4.364,36.37,8.274,155.663-8.229,199.307
					s-7.773,94.883,18.412,93.268s218.622-41.26,250.153-30.238c31.532,11.022,295.393-45.918,333.218-50.109
					c37.824-4.191,126.918-6.5,125.18-23.18s-65.534-150.062-72.808-205.196s-23.275-128.094-26.186-145.442
					s-294.947-8.647-386.787,7.384S327.832,201.733,327.832,201.733z"/>
			</g>
			<path clip-path="url(#SVGID_2_)" fill="#C95D98" d="M678.711,573.796L482.124,349.235c0,0-50.436,11.639-56.255,46.556
				c-5.82,34.917-5.82,87.292-23.278,101.841c-17.458,14.548-1.939,117.936-1.939,117.936L678.711,573.796z"/>
			<g clip-path="url(#SVGID_2_)">
				<path fill="#2D346B" d="M465.476,355.129c0,0-18.169,4.276-21.378,37.411c-3.207,33.135,2.14,70.059,21.378,92.214
					c19.239,22.157,50.235,63.465,128.265,57.774c78.027-5.689,277.485,324.956,430.018,54.373
					c80.512-142.821-28.119-258.89-44.153-270.639c0,0-12.827,18.163-32.065,0c-19.24-18.163-138.953,50.245-188.123,23.523
					C710.248,323.062,470.66,232.314,465.476,355.129z"/>
				<path fill="#C67F92" d="M857.635,896.585c-57.332,5.131-123.849,10.175-172.8,13.725c-41.444,3.006-70.289,4.937-70.289,4.937
					S489.428,664.378,508.341,574.497c0,0-1.455-28.768,56.739-47.681c58.185-18.914,146.932-49.466,187.668-56.74
					c40.727-7.274,109.105-16.003,133.838,58.194c24.732,74.188,96.041,364.674,99.891,375.753
					C994.712,927.719,925.508,890.503,857.635,896.585z"/>
				<g>
					<path fill="none" stroke="#FDF6E4" stroke-miterlimit="10" d="M746.863,471.218c0,0,28.174,117.585,66,187.419
						c37.826,69.833,129.968,198.066,137.727,227.062"/>
					<path fill="none" stroke="#FDF6E4" stroke-miterlimit="10" d="M704.233,482.26c0,0,20.368,105.984,49.465,170.278
						c29.098,64.293,155.921,212.689,162.828,239.362"/>
					<path fill="none" stroke="#FDF6E4" stroke-miterlimit="10" d="M670.699,527.408c0,0,16.795,125.603,56.201,192.43
						c39.407,66.827,133.083,169.38,135.711,176.298"/>
					<path fill="none" stroke="#FDF6E4" stroke-miterlimit="10" d="M635.369,593.841c0,0,26.188,98.341,35.887,115.516"/>
				</g>
				<path fill="#2D346B" d="M907.779,765.327l-50.145,131.258c-57.332,5.131-123.849,10.175-172.8,13.725l-13.579-86.72
					L907.779,765.327z"/>
				<path fill="#FDF6E4" d="M492.197,390.401c0,0,9.62,52.375,20.309,68.408c10.689,16.032,42.756,73.47,63.063,68.267
					c20.309-5.203,32.066-21.238,38.48-12.687c6.412,8.552,18.17,39.932,56.649,13.019c38.48-26.913-2.138-58.98-13.895-99.597
					c-11.758-40.617-35.709-100.322-107.957-101.542C501.817,325.475,492.197,390.401,492.197,390.401z"/>
				<g>
					<path fill="#E5AF29" d="M726.9,844.348c0,0-5.177,70.399-50.707,107.764c-45.529,37.365-2.432-118.113-2.432-118.113
						l24.425-20.511L726.9,844.348z"/>
					<path fill="#FDBB07" d="M511.58,702.059c0,0-1.319,19.128-3.008,44.472c-2.734,40.939-6.439,98.096-7.167,117.126
						c-1.164,30.814-102.84,61.047-100.434-9.864c1.454-42.841,29.814-92.5,52.045-125.118c14.567-21.387,26.508-35.44,26.508-35.44
						L511.58,702.059z"/>
					<path fill="#2D346B" d="M511.58,702.059c0,0-1.319,19.128-3.008,44.472l-24.887,81.095l-30.669-98.951
						c14.567-21.387,26.508-35.44,26.508-35.44L511.58,702.059z"/>
					<path fill="#E5AF29" d="M501.772,699.924c0,0-31.715,114.683-20.104,151.314c11.612,36.633,16.406,77.544,95.923,61.079
						c79.518-16.466,130.09-63.435,118.562-101.722c-11.529-38.288-99.943-143.925-99.943-143.925L501.772,699.924z"/>
					<path fill="#E66AAA" d="M528.189,709.73c0,0-18.981,31.231,4.365,84.466l15.663-5.748c0,0,15.979,12.365,22.424,12.717
						c0,0-26.259-76.211-24.128-95.606C546.514,705.559,532.969,697.021,528.189,709.73z"/>
					<path fill="#E66AAA" d="M551.623,704.032c0,0,38.121,68.419,47.982,86.176l7.159-21.268l13.309-7.03
						c0,0-26.943-56.057-57.177-64.265L551.623,704.032z"/>
					<path fill="#FDBB07" d="M754.61,861.658c-40.048,20.572-51.376-19.951-51.376-19.951s-4.443,4.831-19.156,2.474
						c-14.723-2.366-11.979-40.659-24.607-72.151c-5.449-13.579-18.408-29.719-31.385-43.676
						c-17.1-18.408-34.238-33.025-34.238-33.025l28.389-29.369c9.205,2.483,17.953,5.548,26.227,9.069
						c60.727,25.761,96.691,75.779,109.911,100.133C773.396,802.833,794.648,841.087,754.61,861.658z"/>
					<path fill="#2D346B" d="M648.463,675.028l-20.377,53.325c-17.1-18.408-34.238-33.025-34.238-33.025l28.389-29.369
						C631.441,668.442,640.189,671.507,648.463,675.028z"/>
					<path fill="#E66AAA" d="M543.161,708.407c0,0-22.781,20.92-24.302,25.631c-1.521,4.71-12.051,6.38-12.051,6.38l-14.234-30.581
						c0,0,31.997-13.466,40.38-14.646L543.161,708.407z"/>
					<path fill="#2D346B" d="M602.059,706.743c0,0-11.683,11.72-20.659,17.221c-1.808,1.11-3.511,1.973-4.984,2.427
						c-8.769,2.724-20.565-22.957-20.565-22.957c-2.044-4.09-6.194-8.044-6.194-8.044l0.26-0.271l15.678-16.269L602.059,706.743z"/>
					<path fill="#E66AAA" d="M581.399,723.964c-2.526-14.022-21.559-24.353-31.484-28.846l15.678-16.269l36.466,27.894
						C602.059,706.743,590.376,718.463,581.399,723.964z"/>
					<path fill="#2D346B" d="M527.311,696.606c0,0,5.938,17.777,13.278,16.476c7.341-1.299,13.765-1.58,16.423-7.27
						c2.657-5.688-1.718-16.275-1.718-16.275S534.513,691.824,527.311,696.606z"/>
					<path fill="#FDBB07" d="M545.175,916.066c0,0-31.638,47.708-79.689,59.465c-48.053,11.756-157.034-62.774-97.9-128.143
						c49.034-54.201,96.424-13.889,109.481-3.77C490.125,853.738,545.175,916.066,545.175,916.066z"/>
					<path fill="#F2E0C7" d="M391.118,868.094c12.819-14.421,54.769-18.194,76.631,9.557c21.863,27.75,31.942,53.443,9.999,76.271
						s-62.908,0.411-78.473-14.046C383.712,925.417,363.76,898.867,391.118,868.094z"/>
					<path fill="#FDBB07" d="M619.298,807.151c22.397-2.404,55.424,18.308,66.563,46.538c11.137,28.23,6.597,87.356-15.001,111.091
						s-73.529,28.203-97.915-13.707C548.562,909.164,537.702,815.907,619.298,807.151z"/>
					<path fill="#F2E0C7" d="M611.445,834.302c17.931-1.073,45.986,23.292,49.191,50.683c3.203,27.393,5.713,66.914-44.561,72.63
						c-50.275,5.718-48.572-52.929-48.099-77.089C568.451,856.363,577.29,836.351,611.445,834.302z"/>
					<path fill="#E5AF29" d="M486.653,542.445c0,0-39.865-31.346-64.482,4.288c-24.619,35.633,13.465,59.148,13.465,59.148
						L486.653,542.445z"/>
					<path fill="#2D346B" d="M475.426,556.404c0,0-21.896-15.692-36.389,4.518c-14.491,20.209,11.469,31.21,11.469,31.21
						L475.426,556.404z"/>
					<path fill="#FDBB07" d="M521.232,524.209c37.003-7.616,87.865,0.182,113.531,43.434
						c25.664,43.252,29.577,108.366-52.457,131.403c-82.034,23.039-139.279,8.797-150.808-56.222
						C419.97,577.81,471.208,534.506,521.232,524.209z"/>
					<path fill="#FDBB07" d="M581,535.151c0,0,27.33-47.679,61.5-22.184c34.17,25.497,19.392,53.285,3.524,77.414L581,535.151z"/>
					<path fill="#2D346B" d="M599.079,550.508c0,0,17.368-30.519,33.913-17.374c16.545,13.144,20.101,32.47,3.951,49.535
						L599.079,550.508z"/>
					<path fill="#F2E0C7" d="M513.179,685.327c16.235-3.067,64.898-12.046,58.827-48.304c-6.072-36.257-47.826-44.753-72.956-40.123
						c-25.131,4.63-46.996,36.032-33.854,67.408C478.339,695.683,502.713,687.304,513.179,685.327z"/>
					<path fill="#2D346B" d="M494.917,642.026c0,0-17.189-6.996-16.203-17.04c0.987-10.044,28.708-10.478,30.314-3.419
						C510.636,628.628,494.917,642.026,494.917,642.026z"/>
					<line fill="none" stroke="#2D346B" stroke-miterlimit="10" x1="494.917" y1="642.026" x2="499.582" y2="665.246"/>
					<line fill="none" stroke="#2D346B" stroke-miterlimit="10" x1="520.911" y1="726.593" x2="540.589" y2="713.082"/>
					<path fill="none" stroke="#2D346B" stroke-miterlimit="10" d="M516.89,525.188c0,0-25.161,25.494-17.84,71.712"/>
					<path fill="none" stroke="#2D346B" stroke-miterlimit="10" d="M611.122,658.637c1.616,1.617,3.232,3.232,4.849,4.85"/>
					<path fill="none" stroke="#2D346B" stroke-miterlimit="10" d="M617.911,641.178c2.94,1.21,6.026,3.506,7.759,5.82"/>
					<path fill="none" stroke="#2D346B" stroke-miterlimit="10" d="M635.369,613.051c1.559,1.016,2.969,2.426,3.88,3.88"/>
					<path fill="none" stroke="#2D346B" stroke-miterlimit="10" d="M602.393,605.291c1.137,1.508,2.164,3.213,2.91,4.85"/>
					<path fill="none" stroke="#2D346B" stroke-miterlimit="10" d="M596.573,653.787c1.005,1.076,1.314,2.419,0.97,3.88"/>
					<path fill="none" stroke="#2D346B" stroke-miterlimit="10" d="M578.145,679.005c1.524,2.091,3.162,5.754,3.88,8.729"/>
					<path fill="none" stroke="#2D346B" stroke-miterlimit="10" d="M673.195,740.109c1.541,1.749,2.908,3.797,3.881,5.819"/>
					<path fill="none" stroke="#2D346B" stroke-miterlimit="10" d="M667.377,760.478c1.602,1.337,2.972,3.044,3.879,4.85"/>
					<path fill="none" stroke="#2D346B" stroke-miterlimit="10" d="M708.113,758.537c2.354,1.697,4.059,4.053,4.849,6.79"/>
					<path fill="none" stroke="#2D346B" stroke-miterlimit="10" d="M702.293,792.484c1.074,2.016,2.368,3.668,3.88,4.85"/>
					<path fill="none" stroke="#2D346B" stroke-miterlimit="10" d="M678.045,712.951c3.438,2.748,6.645,5.999,8.729,9.699"/>
					<path fill="none" stroke="#2D346B" stroke-miterlimit="10" d="M651.857,725.561c1.539,3.418,2.273,7.352,3.88,10.669"/>
					<path fill="none" stroke="#2D346B" stroke-miterlimit="10" d="M615.971,800.243c0.094,1.515,0.782,2.877,1.94,3.88"/>
					<line fill="none" stroke="#2D346B" stroke-miterlimit="10" x1="504.5" y1="786" x2="504.5" y2="793"/>
					<path fill="none" stroke="#2D346B" stroke-miterlimit="10" d="M505.401,750.778c-0.367,1.3-1.419,5.471-1.939,7.759"/>
					<path fill="none" stroke="#2D346B" stroke-miterlimit="10" d="M552.927,744.959c1.18,1.689,2.661,3.543,3.88,4.85"/>
					<path fill="none" stroke="#2D346B" stroke-miterlimit="10" d="M540.318,544.188c2.23,1.605,3.528,3.961,3.88,6.789"/>
					<path fill="none" stroke="#2D346B" stroke-miterlimit="10" d="M570.386,533.519c1.147,0.796,2.238,1.874,2.909,2.909"/>
					<path fill="none" stroke="#2D346B" stroke-miterlimit="10" d="M479.214,550.007c0.708,2.292,0.668,4.374,0,6.789"/>
					<line fill="none" stroke="#2D346B" stroke-miterlimit="10" x1="457.5" y1="564" x2="457.5" y2="571"/>
					<path fill="none" stroke="#2D346B" stroke-miterlimit="10" d="M438.478,772.116c1.104,2.226,1.019,4.493,0,6.789"/>
					<line fill="none" stroke="#2D346B" stroke-miterlimit="10" x1="457.5" y1="788" x2="457.5" y2="793"/>
					<path fill="none" stroke="#2D346B" stroke-miterlimit="10" d="M424.898,795.394c0.46,1.224,0.429,2.531,0,3.88"/>
					<path fill="none" stroke="#2D346B" stroke-miterlimit="10" d="M406.901,819.696c0,0,46.474-9.758,75.396,28.556"/>
				</g>
				<path fill="#FDF6E4" d="M393.19,833.302c0,0-0.485-0.255-1.338-0.729c-4.163-2.318-17.098-9.894-25.148-18.75
					c-9.699-10.669-30.067-19.398-32.977-19.398c-2.91,0-15.519,24.248-15.519,24.248s-20.368,5.982-21.338,14.63
					c-0.971,8.647,0,26.106,0,26.106s50.435,30.067,92.141,22.308"/>
				<path fill="#2D346B" d="M492.197,390.401c0,0,14.195,55.413,83.372,44.893c45.44-6.91,92.209,73.418,130.033,42.867
					c32.442-26.203-61.625-185.027-157.823-173.27C451.581,316.649,492.197,390.401,492.197,390.401z"/>
				<path fill="#2D346B" d="M465.476,355.129c0,0-7.389-91.049,65.298-115.278c72.688-24.229,114.97-33.731,133.973-66.036
					c0,0-15.677,31.118-54.633,49.17c-37.541,17.397-115.027,22.566-126.43,111.406L465.476,355.129z"/>
				<path fill="#2D346B" d="M483.684,316.814c0,0,17.636-46.083,75.121-66.986c57.482-20.904,82.187-29.93,92.639-43.232
					c0,0-31.829,31.83-77.438,49.408c-45.607,17.578-62.71,51.309-62.71,51.309L483.684,316.814z"/>
				<path fill="#2D346B" d="M512.246,295.911c0,0,19.968-30.013,65.574-31.438c45.608-1.425,104.503,26.687,127.782,12.435
					c0,0-31.354,15.203-67.461,9.501c-36.106-5.7-71.209-0.475-73.136,0.951c0,0,67.13-43.52,172.545,55.23L512.246,295.911z"/>
				<path fill="#2D346B" d="M735.041,338.231c0,0,68.428,14.214,110.71-16.666c0,0-26.604,26.604-67.937,26.604
					c0,0,28.98,2.376,53.208-8.076c0,0-31.83,19.954-61.284,17.103C740.283,354.345,735.041,338.231,735.041,338.231z"/>
				<path fill="#2D346B" d="M446.211,420.618c0,0,1.424,61.998,24.94,83.733c23.517,21.735,59.86,28.505,59.86,28.505l5.717,2.85
					c0,0-48.119-0.711-75.196-29.93C434.452,476.559,446.211,420.618,446.211,420.618z"/>
				<path fill="#2D346B" d="M446.361,424.172c0,0-11.553,41.34,2.699,69.132c0,0-20.97-42.044-4.963-75.894L446.361,424.172z"/>
				<polyline fill="none" stroke="#2D346B" stroke-width="2" stroke-miterlimit="10" points="544.198,465.002 548.077,488.903 
					560.687,485.122 				"/>
				<polygon fill="#2D346B" points="625.67,781.857 682.41,760.478 700.354,706.49 682.41,693.304 762.918,511.084 712.962,785.695 
									"/>
				<path fill="#DDA8B0" d="M805.118,868.69c-72.888,15.79-404.432,46.915-424.799,41.647l10.183-76.562
					c0,0,174.574-30.551,205.126-43.644c30.551-13.093,104.726-16.643,104.726-16.643c2.89-39.919,73.678-304.382,73.678-304.382
					s20.902-18.248,68.911-3.7c48.009,14.547,69.446,84.729,67.456,147.262c0,0-2.122,62.536,0.126,71.264
					c2.249,8.729,12.3,27.641,0,30.551c-12.3,2.909,6.612,39.278-3.57,55.282c-10.184,16.003-40.734,45.1-39.28,53.828
					C869.129,832.321,854.096,858.08,805.118,868.69z"/>
				<line fill="none" stroke="#2D346B" stroke-miterlimit="10" x1="433.781" y1="825.947" x2="429.857" y2="910.931"/>
				<line fill="none" stroke="#2D346B" stroke-miterlimit="10" x1="390" y1="838.5" x2="434" y2="838.5"/>
				<path fill="none" stroke="#2D346B" stroke-miterlimit="10" d="M318.209,818.672c0,0,24.694-7.932,32.23-0.086"/>
				<line fill="none" stroke="#2D346B" stroke-miterlimit="10" x1="387.415" y1="856.982" x2="433.628" y2="848.252"/>
				<line fill="none" stroke="#2D346B" stroke-miterlimit="10" x1="386" y1="868.5" x2="435" y2="868.5"/>
				<line fill="none" stroke="#2D346B" stroke-miterlimit="10" x1="384" y1="883.5" x2="430" y2="883.5"/>
				<line fill="none" stroke="#2D346B" stroke-miterlimit="10" x1="381.033" y1="904.965" x2="431.819" y2="898.23"/>
				<path fill="none" stroke="#FDF6E4" stroke-miterlimit="10" d="M793.352,461.172c0,0-54.846,220.742-59.858,256.628
					s-8.892,61.308-29.26,67.511s-269.636,48.956-269.636,48.956"/>
				<path fill="none" stroke="#FDF6E4" stroke-miterlimit="10" d="M824.88,461.172c0,0-63.682,284.756-72.281,304.155
					c-8.599,19.397-28.968,32.977-52.245,38.796s-267.4,39.779-267.4,39.779"/>
				<path fill="none" stroke="#FDF6E4" stroke-miterlimit="10" d="M433.781,857.92c0,0,240.385-20.373,279.181-30.295
					c38.797-9.923,70.804-43.87,85.353-81.696c14.549-37.827,55.482-276.077,55.482-276.077"/>
				<path fill="none" stroke="#FDF6E4" stroke-miterlimit="10" d="M880.181,493.305c0,0-34.555,258.824-55.301,288.701
					s-65.362,65.76-112.888,70.611c-47.525,4.851-280.173,25.219-280.173,25.219"/>
				<path fill="none" stroke="#FDF6E4" stroke-miterlimit="10" d="M430.736,891.9c0,0,231.207-12.124,292.118-23.278
					s130.076-53.449,146.899-86.616c0,0,25.252-11.83,27.342-32.197c2.09-20.368-1.371-59.483-1.371-59.483l4.777-25.079
					c0,0-9.209-43.76-4.777-68.346c4.431-24.586-0.064-75.268-0.064-75.268"/>
				<path fill="none" stroke="#2D346B" stroke-miterlimit="10" d="M883.666,616.931c0,0,10.07,40.894,26.858,67.002"/>
				<path fill="none" stroke="#2D346B" stroke-miterlimit="10" d="M883.666,663.486c0,0,21.941,49.306,24.115,72.743"/>
				<path fill="none" stroke="#2D346B" stroke-miterlimit="10" d="M874.938,740.418c0,0-8.707,58.029-7.264,83.176"/>
				<path fill="none" stroke="#FDF6E4" stroke-miterlimit="10" d="M585.848,432.178c0,0,25.799-5.6,70.152-37.482
					c44.354-31.882,98.668,0,98.668,0"/>
				<path fill="none" stroke="#FDF6E4" stroke-miterlimit="10" d="M482.298,349.235c0,0-4.275,26.077,9.899,41.166"/>
				<g>
					<path fill="#2D346B" d="M1042.285,750.514c-0.905,3.972-4.857,6.458-8.828,5.554l-54.406-12.394
						c-3.971-0.904-6.457-4.857-5.552-8.828l25.665-112.672c0.904-3.971,4.857-6.457,8.828-5.552l54.405,12.393
						c3.97,0.904,6.458,4.857,5.553,8.828L1042.285,750.514z"/>
					<path fill="#FFFFFF" d="M1038.721,743.743c-0.904,3.972-4.858,6.457-8.831,5.553l-54.401-12.392
						c-3.973-0.905-6.458-4.858-5.555-8.83l25.665-112.671c0.904-3.972,4.857-6.457,8.829-5.552l54.403,12.392
						c3.973,0.905,6.459,4.858,5.554,8.829L1038.721,743.743z"/>
					<path fill="#7FBDF4" d="M1035.823,726.562c-0.743,3.26-3.987,5.301-7.247,4.558l-44.842-10.214
						c-3.261-0.743-5.301-3.987-4.559-7.247l21.09-92.588c0.743-3.26,3.988-5.301,7.248-4.559l44.843,10.215
						c3.259,0.742,5.3,3.986,4.558,7.246L1035.823,726.562z"/>
					<path fill="#2D346B" d="M1045.039,686.107l-9.189,40.343c-0.742,3.259-4.003,5.416-7.263,4.673l-8.089-1.842L1045.039,686.107z
						"/>
					<path fill="none" stroke="#2D346B" stroke-miterlimit="10" d="M1015.322,736.22c-0.302,1.325-1.619,2.153-2.943,1.852
						l-17.055-3.885c-1.324-0.302-2.154-1.619-1.853-2.943l0.015-0.062c0.301-1.323,1.619-2.152,2.943-1.851l17.055,3.885
						c1.324,0.302,2.153,1.619,1.853,2.942L1015.322,736.22z"/>
				</g>
			</g>
			<path clip-path="url(#SVGID_2_)" fill="none" stroke="#2D346B" stroke-miterlimit="10" d="M435.568,254.184
				c0,0-1.94,64.014-29.098,102.811"/>
			<path clip-path="url(#SVGID_2_)" fill="none" stroke="#2D346B" stroke-miterlimit="10" d="M742.06,235.414
				c0,0,34.917,47.867,100.87,55.626"/>
			<path clip-path="url(#SVGID_2_)" fill="none" stroke="#2D346B" stroke-miterlimit="10" d="M811.893,254.184
				c0,0,40.736,19.398,73.714,21.338"/>
			<g clip-path="url(#SVGID_2_)">
				<polyline fill="#5C2C7A" points="1072.799,923.422 1059.221,760.478 1218.285,739.139 1247.353,927.133 1077.648,923.422 				
					"/>
				<polygon fill="#2D346B" points="1219.048,749.323 1232.73,785.775 1268.398,929.888 1247.353,927.133 				"/>
				<polygon fill="#E5AF29" points="1190.271,742.897 1211.496,748.838 1224.105,766.297 1218.285,739.139 				"/>
				<path fill="none" stroke="#FDF6E4" stroke-miterlimit="10" d="M1095.107,892.385l-10.67-96.021c0,0,11.64-5.82,11.64-18.429
					l85.352-14.549c0,0,10.669,18.429,27.157,15.519l16.489,113.479"/>
				<path fill="none" stroke="#FDF6E4" stroke-miterlimit="10" d="M1098.341,834.19l17.458,11.639c0,0,32.979-27.804,75.008-9.699
					l8.404-18.752c0,0-43.969-30.391-102.163,14.226"/>
				<polygon fill="#DDA8B0" points="1119.679,790.867 1120.973,797.979 1170.114,792.16 1168.821,783.755 				"/>
				<polygon fill="none" stroke="#FDF6E4" stroke-miterlimit="10" points="1128.731,857.468 1131.965,880.1 1187.572,872.34 
					1180.46,847.77 				"/>
			</g>
			<g clip-path="url(#SVGID_2_)">
				<path fill="#2D346B" d="M1101.783,643.766l173.691,77.269c1.52-3.008,3.428-5.726,5.538-8.151
					c10.011-11.555,24.604-16.654,24.604-16.654l14.513-101.823l-157.241-87.997c-20.483-1.682-24.924,25.005-24.924,25.005
					L1101.783,643.766z"/>
				<path fill="#FDF6E4" d="M1112.815,638.058l168.197,74.825c10.011-11.555,24.604-16.654,24.604-16.654l14.513-101.823
					l-157.241-87.997c0,0-13.197,5.805-17.339,19.886C1141.409,540.376,1112.815,638.058,1112.815,638.058z"/>
				<polygon fill="#E5AF29" points="1162.889,506.408 1334.808,582.889 1305.617,696.229 1136.356,620.93 				"/>
				<polyline fill="none" stroke="#2D346B" stroke-miterlimit="10" points="1148.165,520.545 1120.991,631.609 1288.479,706.119 
									"/>
				<polyline fill="none" stroke="#2D346B" stroke-miterlimit="10" points="1151.805,514.766 1128.575,626.491 1291.631,699.03 				
					"/>
				<polygon fill="#E66AAA" points="1192.814,544.137 1235.35,563.059 1220.258,632.777 1171.518,611.095 				"/>
				<polygon fill="none" stroke="#2D346B" stroke-miterlimit="10" points="1223.271,602.803 1255.959,630.081 1245.708,653.122 
					1203.615,634.396 				"/>
				<polygon fill="none" stroke="#2D346B" stroke-miterlimit="10" points="1303.781,592.972 1316.189,598.492 1296.914,662.103 
					1286.723,657.568 				"/>
				<circle fill="#2A83DD" cx="1204.252" cy="569.13" r="9.942"/>
			</g>
		</g>
		<path fill="none" stroke="#2D346B" stroke-width="2" stroke-miterlimit="10" d="M570.896,504.508c0,0,16.002-9.871,20.367-18.756"
			/>
		<g>
			<g>
				<path fill="#55A2F2" d="M951.038,277.708c-0.138,0.302,0.219,0.838,0.381,1.268c0.039,0.093,0.22,0.131,0.335,0.2
					c1.205,0.698,1.646,1.356-0.11,1.896c0.114,0.326,0.136,0.807,0.362,0.949c0.262,0.161,0.917,0.157,1.047-0.024
					c0.643-0.901,0.748-2.241,2.368-2.22c0.265-0.006,0.752-0.773,0.734-1.172c-0.02-0.273-0.679-0.638-1.122-0.753
					c-0.873-0.231-1.793-0.321-3.205-0.558C951.834,277.29,951.193,277.386,951.038,277.708z"/>
				<path fill="#55A2F2" d="M941.298,233.483c-0.155-1.168,0.122-2.01,0.745-2.915c0.091-0.138-0.251-0.809-0.424-0.821
					c-0.485-0.047-1.331-0.009-1.43,0.238c-0.69,1.614-0.387,3.56-1.668,5.018c-0.026,0.03,0.293,0.346,0.443,0.535
					C940.031,235.664,941.447,234.631,941.298,233.483z"/>
				<path fill="#55A2F2" d="M931.227,278.167c-1.43,0.856-2.816,1.774-4.189,2.713c-0.157,0.105-0.233,0.501-0.161,0.706
					c0.063,0.167,0.411,0.381,0.59,0.343c1.024-0.214,2.19-0.269,3.003-0.812c0.791-0.534,1.22-1.589,1.928-2.583
					C931.836,278.351,931.409,278.057,931.227,278.167z"/>
				<path fill="#55A2F2" d="M895.968,233.963c0.286,0.511,0.761,1.303,1.147,1.306c0.652-0.01,1.427-0.437,1.881-0.926
					c0.186-0.201-0.287-1.033-0.514-1.554c-0.094-0.222-0.303-0.431-0.517-0.565c-0.417-0.257-0.944-0.714-1.3-0.623
					c-0.342,0.079-0.542,0.747-0.728,1.049C895.937,233.218,895.802,233.667,895.968,233.963z"/>
				<path fill="#55A2F2" d="M864.522,241.863c0.032,0.166,0.342,0.392,0.54,0.41c0.219,0.017,0.613-0.127,0.658-0.283
					c0.352-1.115,0.702-2.237,0.875-3.374c0.05-0.34-0.423-1.012-0.748-1.074c-0.41-0.088-1.062,0.19-1.333,0.521
					c-0.304,0.364-0.289,0.97-0.357,1.242C864.29,240.319,864.369,241.099,864.522,241.863z"/>
				<path fill="#55A2F2" d="M939.505,299.279c0.158,0.348,0.267,0.723,0.469,1.044c0.175,0.298,0.446,0.537,0.678,0.804
					c0.362-0.314,0.791-0.581,1.057-0.956c0.207-0.285,0.171-0.736,0.296-1.084c0.478-1.401,0.233-1.785-1.172-1.799
					C939.147,297.268,938.811,297.774,939.505,299.279z"/>
				<path fill="#55A2F2" d="M884.753,254.817c0.616-0.436,1.408-0.761,1.792-1.34c0.243-0.379,0.033-1.24-0.27-1.685
					c-0.202-0.295-1.121-0.49-1.398-0.295c-0.443,0.322-0.635,0.99-0.938,1.543C884.242,253.719,884.496,254.267,884.753,254.817z"
					/>
				<path fill="#55A2F2" d="M897.441,257.031c-0.088,1.145,0.107,2.315,0.239,3.47c0.022,0.177,0.331,0.489,0.437,0.467
					c0.227-0.061,0.538-0.265,0.58-0.467c0.304-1.26,0.58-2.523,0.775-3.801c0.043-0.242-0.362-0.55-0.73-1.068
					C898.195,256.188,897.482,256.584,897.441,257.031z"/>
				<path fill="#55A2F2" d="M954.517,184.505c0.364-0.61,1.106-1.267,1.034-1.819c-0.159-1.183-1.319-1.057-2.221-0.909
					c-0.425,0.065-0.802,0.465-1.604,0.971C952.889,183.482,953.702,183.99,954.517,184.505z"/>
				<path fill="#55A2F2" d="M884.845,294.931c0.85-1.152,1.685-2.318,2.438-3.515c0.152-0.227-0.05-0.965-0.15-0.973
					c-0.47-0.061-1.346-0.043-1.395,0.122c-0.398,1.471-0.889,2.873-1.866,4.08c-0.062,0.076,0.2,0.414,0.325,0.629
					C884.414,295.16,884.717,295.098,884.845,294.931z"/>
				<path fill="#55A2F2" d="M882.701,182.227c-0.322,0.158-0.757,0.376-0.836,0.649c-0.067,0.232,0.224,0.684,0.475,0.874
					c0.41,0.315,0.909,0.526,1.387,0.716c0.892,0.363,1.162-0.253,1.339-0.91c0.276-1.048-0.162-1.435-1.591-1.421
					C883.216,182.154,882.927,182.121,882.701,182.227z"/>
				<path fill="#55A2F2" d="M954.111,266.448c0.182,0.194,0.72,0.267,0.994,0.156c1.68-0.681-1.148-2.562,0.85-3.23
					c0.074-0.024,0.02-0.419,0.022-0.638c-0.479,0.018-1.277-0.125-1.394,0.086c-0.41,0.762-0.602,1.652-0.844,2.405
					C953.881,265.746,953.88,266.196,954.111,266.448z"/>
				<path fill="#55A2F2" d="M917.41,246.181c0.057,0.212,0.289,0.546,0.434,0.547c0.368-0.005,0.977-0.07,1.067-0.284
					c0.304-0.704,0.477-1.476,0.548-2.236c0.019-0.213-0.446-0.642-0.729-0.671c-0.339-0.04-0.883,0.146-1.028,0.404
					c-0.237,0.413-0.228,0.963-0.154,0.598C917.438,245.672,917.348,245.942,917.41,246.181z"/>
				<path fill="#55A2F2" d="M861.091,258.093c-0.089-0.323-0.298-0.859-0.481-0.869c-0.481-0.026-1.042,0.076-1.458,0.314
					c-0.897,0.525,0.146,0.664,0.251,1.003c0.203,0.596,0.309,1.225,0.511,1.814c0.064,0.19,0.321,0.441,0.489,0.445
					c0.156,0.003,0.448-0.267,0.475-0.445c0.067-0.499,0.026-1.009,0.022-1.235C861.011,258.586,861.15,258.319,861.091,258.093z"/>
				<path fill="#55A2F2" d="M898.565,205.563c0.285-0.575,0.545-1.153,0.778-1.755c0.104-0.265,0.132-0.576,0.191-0.867
					c-0.393,0.02-0.865-0.107-1.152,0.058c-1.015,0.585-1.585,1.405-0.873,2.568c0.127,0.202,0.387,0.331,0.591,0.492
					C898.258,205.897,898.466,205.759,898.565,205.563z"/>
				<path fill="#55A2F2" d="M913.959,306.86c0.059,0.146,0.454,0.273,0.648,0.222c0.179-0.046,0.445-0.355,0.42-0.521
					c-0.1-0.738-0.258-1.476-0.468-2.193c-0.048-0.169-0.438-0.404-0.558-0.355c-0.305,0.132-0.541,0.404-0.796,0.615
					C913.473,305.444,913.67,306.169,913.959,306.86z"/>
				<path fill="#55A2F2" d="M831.438,279.288c-0.083-0.224-0.262-0.407-0.407-0.609c-0.215,0.241-0.536,0.467-0.622,0.747
					c-0.097,0.35-0.051,0.764,0.037,1.122c0.049,0.207,0.374,0.529,0.476,0.494c0.308-0.103,0.57-0.347,0.83-0.521
					C831.626,280.028,831.572,279.643,831.438,279.288z"/>
				<path fill="#55A2F2" d="M935.418,266.732c0.277-0.38,0.746-0.739,0.796-1.146c0.085-0.592-0.118-1.23-0.251-1.836
					c-0.052-0.218-0.268-0.398-0.413-0.59c-0.136,0.181-0.367,0.345-0.407,0.548c-0.135,0.614-0.202,1.246-0.341,2.192
					C934.922,266.051,935.168,266.393,935.418,266.732z"/>
				<path fill="#55A2F2" d="M873.335,164.642c-0.197-0.095-0.573-0.089-0.733,0.038c-0.5,0.409-0.992,0.857-1.374,1.367
					c-0.163,0.224-0.214,0.803-0.056,0.949c0.239,0.207,0.866,0.38,1.045,0.232c0.65-0.512,1.182-1.164,1.693-1.704
					C873.596,165.027,873.512,164.73,873.335,164.642z"/>
				<path fill="#55A2F2" d="M935.815,251.218c-0.651-0.333-1.597,0.76-1.484,1.814c0.023,0.27,0.468,0.498,0.721,0.753
					c0.487-0.488,0.972-0.969,1.484-1.478C936.201,251.781,936.091,251.355,935.815,251.218z"/>
				<path fill="#55A2F2" d="M824.021,212.392c-0.58-0.051-1.733,1.448-1.498,1.886c0.085,0.171,0.499,0.342,0.633,0.274
					c0.702-0.385,1.366-0.838,2.258-1.415C824.681,212.735,824.365,212.425,824.021,212.392z"/>
				<path fill="#55A2F2" d="M920.028,216.44c-0.33,0.083-0.769,0.193-0.915,0.445c-0.172,0.292-0.178,0.742-0.124,1.106
					c0.056,0.318,0.298,0.614,0.449,0.915c0.241-0.255,0.552-0.478,0.692-0.778c0.167-0.335,0.188-0.737,0.27-1.087
					C920.264,216.821,920.1,216.425,920.028,216.44z"/>
				<path fill="#55A2F2" d="M897.391,242.98c-0.384,0.085-0.699,0.552-0.975,0.904c-0.051,0.062,0.278,0.563,0.332,0.541
					c0.805-0.218,1.59-0.497,2.377-0.775c0.039-0.011,0.004-0.221,0.004-0.59C898.557,243.022,897.936,242.861,897.391,242.98z"/>
				<path fill="#55A2F2" d="M942.463,206.008c0.546-0.735,1.089-1.474,1.59-2.249c0.051-0.08-0.17-0.469-0.324-0.498
					c-0.223-0.055-0.633-0.013-0.734,0.135c-0.438,0.646-0.816,1.333-1.158,2.037c-0.064,0.138,0.156,0.411,0.242,0.619
					C942.204,206.04,942.406,206.08,942.463,206.008z"/>
				<path fill="#55A2F2" d="M862.288,160.915c0.001,0.005,0.313-0.015,0.323-0.059c0.139-0.567,0.337-1.146,0.347-1.717
					c0-0.495-0.187-1.004-0.341-1.492c-0.053-0.139-0.274-0.234-0.416-0.345c-0.044,0.113-0.125,0.234-0.125,0.345
					c-0.02,0.512-0.018,1.029-0.022,2.154C862.054,159.776,862.157,160.35,862.288,160.915z"/>
				<path fill="#55A2F2" d="M928.65,291.529c0.363-0.098,0.856-0.094,1.058-0.326c0.29-0.332,0.368-0.836,0.535-1.277
					c-0.716-0.073-1.44-0.156-2.152-0.238c0.072,0.443,0.098,0.892,0.219,1.32c0.066,0.225,0.282,0.412,0.433,0.614L928.65,291.529z
					"/>
				<path fill="#55A2F2" d="M977.004,303.877c-0.312-0.021-0.933,0.283-0.914,0.412c0.052,0.709,0.259,1.405,0.414,2.104
					c0.192-0.146,0.453-0.262,0.573-0.457c0.256-0.415,0.444-0.88,0.704-1.426C977.492,304.263,977.256,303.889,977.004,303.877z"/>
				<path fill="#55A2F2" d="M816.329,284.034c-0.202-0.048-0.637,0.081-0.659,0.199c-0.197,1.075-0.325,2.164-0.45,3.252
					c-0.01,0.03,0.29,0.124,0.29,0.124c0.398-0.899,0.782-1.812,1.168-2.716c0.048-0.113,0.053-0.245,0.082-0.369
					C816.624,284.354,816.499,284.076,816.329,284.034z"/>
				<path fill="#55A2F2" d="M953.09,129.726c0.068,0.248,0.181,0.47,0.274,0.706c0.208-0.26,0.478-0.499,0.602-0.793
					c0.153-0.345,0.317-0.782,0.228-1.115c-0.083-0.298-0.465-0.655-0.773-0.727c-0.321-0.072-0.721,0.171-0.697,0.156
					C952.927,128.958,952.987,129.344,953.09,129.726z"/>
				<path fill="#55A2F2" d="M949.393,297.758c0.015-0.048-0.521-0.302-0.528-0.294c-0.386,0.614-0.743,1.236-1.106,1.871
					c0.229,0.069,0.45,0.141,0.998,0.31C948.979,299.019,949.218,298.404,949.393,297.758z"/>
				<path fill="#55A2F2" d="M960.543,304.826c-0.296-0.331-0.521-0.855-0.88-0.972c-0.592-0.183-1.412-0.198-1.358,0.746
					c0.017,0.367,0.504,0.708,0.902,1.228C959.792,305.389,960.167,305.105,960.543,304.826z"/>
				<path fill="#55A2F2" d="M935.403,295.03c0.36-0.279,0.694-0.637,0.879-1.039c0.048-0.108-0.609-0.711-0.704-0.661
					c-0.385,0.204-0.674,0.577-1.146,1.029C934.912,294.693,935.339,295.089,935.403,295.03z"/>
				<path fill="#55A2F2" d="M976.594,240.039c-0.771,0.405-1.551,0.799-2.299,1.246c-0.066,0.043-0.004,0.533,0.119,0.596
					c0.621,0.328,2.266-0.509,2.516-1.226C976.824,240.45,976.705,240.242,976.594,240.039z"/>
				<path fill="#55A2F2" d="M961.26,251.495c0.023-0.038-0.265-0.229-0.408-0.353c-0.471,0.59-0.934,1.169-1.368,1.775
					c-0.015,0.021,0.298,0.27,0.585,0.52C960.48,252.777,960.888,252.146,961.26,251.495z"/>
				<path fill="#55A2F2" d="M934.666,307.897c0.257-0.361,0.576-0.688,0.752-1.072c0.146-0.316,0.164-0.719,0.129-1.068
					c-0.016-0.173-0.3-0.421-0.48-0.431c-0.154-0.013-0.427,0.233-0.479,0.405c-0.108,0.353-0.1,0.736-0.147,1.246
					C934.497,307.197,934.577,307.546,934.666,307.897z"/>
				<path fill="#55A2F2" d="M889.59,263.268c-0.273-0.088-0.608-0.015-0.916-0.015c0.137,0.352,0.163,0.871,0.424,1.028
					c0.376,0.238,0.918,0.254,1.392,0.268c0.119,0.003,0.249-0.378,0.421-0.661C890.47,263.673,890.049,263.42,889.59,263.268z"/>
				<path fill="#55A2F2" d="M835.397,256.937c-0.222,0.345-0.487,0.676-0.627,1.048c-0.042,0.118,0.263,0.367,0.419,0.549
					c0.269-0.348,0.537-0.702,0.769-1.007C835.693,257.247,835.543,257.1,835.397,256.937z"/>
				<path fill="#55A2F2" d="M822.612,226.198c0.292-0.518,0.618-1.022,0.855-1.565c0.044-0.095-0.275-0.352-0.429-0.541
					c-0.307,0.297-0.605,0.588-0.879,0.854C822.363,225.52,822.491,225.857,822.612,226.198z"/>
				<path fill="#55A2F2" d="M863.934,213.487c0.099-0.381,0.206-0.743,0.272-1.13c0.046-0.255,0.046-0.524,0.029-0.782
					c-0.01-0.118-0.087-0.238-0.136-0.351c-0.163,0.106-0.413,0.182-0.475,0.324c-0.091,0.229-0.055,0.516-0.091,1.053
					C863.601,212.746,863.773,213.115,863.934,213.487z"/>
				<path fill="#55A2F2" d="M940.645,135.091c0.033-0.044-0.522-0.655-0.64-0.613c-0.431,0.176-0.851,0.467-1.13,0.825
					c-0.073,0.091,0.343,0.571,0.659,1.037C939.998,135.85,940.364,135.497,940.645,135.091z"/>
				<path fill="#55A2F2" d="M885.782,305.036c0.084-0.105-0.16-0.421-0.25-0.646c-0.417,0.414-0.878,0.807-1.242,1.258
					c-0.098,0.116,0.054,0.431,0.141,0.923C884.968,305.978,885.414,305.535,885.782,305.036z"/>
				<path fill="#55A2F2" d="M928.742,291.623c-0.685,0.899-1.394,1.787-2.038,2.709c-0.075,0.112,0.129,0.416,0.206,0.635
					c0.222-0.085,0.585-0.109,0.646-0.255c0.394-1.051,0.735-2.116,1.091-3.183L928.742,291.623z"/>
				<path fill="#55A2F2" d="M919.984,298.977c-0.211,0.098-0.536,0.148-0.608,0.303c-0.192,0.458-0.317,0.945-0.392,1.434
					c-0.033,0.213,0.123,0.457,0.194,0.679c0.199-0.103,0.512-0.158,0.578-0.32c0.193-0.451,0.296-0.947,0.42-1.398
					C920.107,299.414,920.045,299.202,919.984,298.977z"/>
				<path fill="#55A2F2" d="M896.82,166.106c-0.291-0.007-0.588,0.255-0.872,0.392c0.288,0.291,0.546,0.697,0.905,0.832
					c0.171,0.065,0.541-0.381,0.968-0.72C897.396,166.379,897.107,166.106,896.82,166.106z"/>
				<path fill="#55A2F2" d="M845.879,226.607c-0.018-0.183-0.27-0.348-0.422-0.519c-0.166,0.238-0.479,0.486-0.47,0.725
					c0.015,0.267,0.308,0.525,0.672,1.058C845.782,227.238,845.912,226.912,845.879,226.607z"/>
			</g>
			<g>
				<path fill="#FFFFFF" d="M184.626,832.535c0.104,0.259-0.221,0.693-0.375,1.046c-0.036,0.076-0.19,0.101-0.29,0.153
					c-1.041,0.531-1.442,1.063,0.008,1.596c-0.109,0.267-0.149,0.67-0.346,0.779c-0.227,0.122-0.777,0.091-0.878-0.067
					c-0.498-0.785-0.527-1.913-1.887-1.969c-0.222-0.017-0.597-0.682-0.563-1.016c0.027-0.228,0.597-0.504,0.973-0.582
					c0.744-0.155,1.52-0.19,2.716-0.325C183.978,832.148,184.511,832.257,184.626,832.535z"/>
				<path fill="#FFFFFF" d="M194.769,795.867c0.183-0.972-0.011-1.69-0.494-2.477c-0.07-0.12,0.246-0.668,0.391-0.67
					c0.41-0.018,1.118,0.052,1.191,0.265c0.505,1.385,0.163,3.003,1.174,4.282c0.021,0.027-0.261,0.278-0.396,0.431
					C195.734,797.754,194.593,796.825,194.769,795.867z"/>
				<path fill="#FFFFFF" d="M201.226,833.803c1.162,0.781,2.285,1.613,3.394,2.463c0.129,0.096,0.175,0.43,0.105,0.599
					c-0.062,0.139-0.363,0.303-0.511,0.263c-0.85-0.227-1.826-0.324-2.482-0.815c-0.642-0.482-0.953-1.387-1.503-2.254
					C200.707,833.931,201.078,833.702,201.226,833.803z"/>
				<path fill="#FFFFFF" d="M232.775,798.291c-0.264,0.416-0.697,1.061-1.021,1.045c-0.547-0.038-1.178-0.429-1.536-0.861
					c-0.147-0.177,0.286-0.853,0.5-1.279c0.089-0.183,0.272-0.349,0.459-0.451c0.361-0.197,0.823-0.557,1.117-0.465
					c0.284,0.081,0.423,0.651,0.564,0.912C232.835,797.668,232.928,798.051,232.775,798.291z"/>
				<path fill="#FFFFFF" d="M258.804,806.32c-0.036,0.138-0.305,0.313-0.472,0.319c-0.186,0.006-0.51-0.134-0.54-0.265
					c-0.245-0.952-0.488-1.91-0.583-2.87c-0.027-0.288,0.399-0.83,0.675-0.867c0.348-0.057,0.881,0.206,1.094,0.496
					c0.239,0.319,0.199,0.827,0.245,1.058C259.066,805.035,258.965,805.686,258.804,806.32z"/>
				<path fill="#FFFFFF" d="M193.34,851.146c-0.147,0.285-0.255,0.594-0.438,0.854c-0.161,0.242-0.399,0.43-0.605,0.645
					c-0.29-0.278-0.638-0.523-0.844-0.849c-0.162-0.248-0.111-0.626-0.2-0.923c-0.338-1.196-0.116-1.509,1.062-1.458
					C193.73,849.473,193.99,849.914,193.34,851.146z"/>
				<path fill="#FFFFFF" d="M241.254,816.285c-0.498-0.393-1.147-0.7-1.443-1.204c-0.188-0.33,0.026-1.041,0.301-1.401
					c0.183-0.238,0.962-0.361,1.186-0.186c0.359,0.29,0.488,0.859,0.719,1.337C241.729,815.388,241.494,815.835,241.254,816.285z"/>
				<path fill="#FFFFFF" d="M230.511,817.578c0.023,0.964-0.192,1.937-0.355,2.9c-0.027,0.147-0.3,0.394-0.387,0.372
					c-0.188-0.062-0.44-0.246-0.466-0.418c-0.199-1.07-0.375-2.144-0.481-3.224c-0.025-0.205,0.329-0.445,0.661-0.864
					C229.916,816.836,230.497,817.202,230.511,817.578z"/>
				<path fill="#FFFFFF" d="M185.863,754.192c-0.279-0.528-0.873-1.111-0.787-1.572c0.187-0.985,1.154-0.827,1.903-0.663
					c0.354,0.073,0.653,0.426,1.301,0.886C187.274,753.406,186.569,753.797,185.863,754.192z"/>
				<path fill="#FFFFFF" d="M239.389,849.934c-0.661-1.005-1.31-2.02-1.889-3.057c-0.118-0.199,0.085-0.809,0.17-0.811
					c0.396-0.028,1.131,0.024,1.164,0.163c0.27,1.254,0.618,2.45,1.383,3.507c0.05,0.065-0.187,0.337-0.3,0.514
					C239.74,850.145,239.49,850.079,239.389,849.934z"/>
				<path fill="#FFFFFF" d="M246.21,755.481c0.264,0.147,0.617,0.349,0.674,0.583c0.045,0.197-0.22,0.563-0.438,0.71
					c-0.358,0.246-0.785,0.401-1.195,0.54c-0.765,0.265-0.963-0.264-1.082-0.823c-0.186-0.892,0.201-1.196,1.398-1.121
					C245.783,755.397,246.026,755.383,246.21,755.481z"/>
				<path fill="#FFFFFF" d="M182.551,822.952c-0.161,0.154-0.616,0.191-0.84,0.087c-1.38-0.647,1.076-2.099-0.57-2.748
					c-0.061-0.024,0.002-0.354,0.01-0.537c0.401,0.036,1.078-0.047,1.165,0.135c0.311,0.657,0.432,1.413,0.601,2.056
					C182.775,822.372,182.757,822.751,182.551,822.952z"/>
				<path fill="#FFFFFF" d="M214.244,807.585c-0.059,0.177-0.269,0.445-0.39,0.44c-0.309-0.021-0.816-0.103-0.882-0.286
					c-0.225-0.604-0.334-1.259-0.361-1.899c-0.006-0.181,0.404-0.519,0.643-0.531c0.284-0.02,0.734,0.162,0.843,0.385
					c0.182,0.357,0.148,0.818,0.104,0.508C214.242,807.158,214.307,807.389,214.244,807.585z"/>
				<path fill="#FFFFFF" d="M260.957,820.089c0.091-0.269,0.29-0.708,0.443-0.708c0.406-0.001,0.87,0.11,1.209,0.328
					c0.73,0.481-0.151,0.551-0.256,0.831c-0.196,0.491-0.312,1.014-0.509,1.499c-0.063,0.157-0.29,0.356-0.431,0.353
					c-0.131-0.004-0.363-0.245-0.378-0.396c-0.034-0.421,0.023-0.848,0.037-1.038C261.003,820.506,260.896,820.275,260.957,820.089z
					"/>
				<path fill="#FFFFFF" d="M231.86,774.351c-0.212-0.494-0.403-0.991-0.574-1.505c-0.075-0.228-0.084-0.49-0.122-0.737
					c0.33,0.034,0.732-0.05,0.965,0.101c0.824,0.536,1.268,1.248,0.619,2.193c-0.117,0.164-0.339,0.261-0.519,0.387
					C232.104,774.646,231.936,774.52,231.86,774.351z"/>
				<path fill="#FFFFFF" d="M214.434,858.644c-0.057,0.119-0.394,0.208-0.556,0.157c-0.146-0.047-0.356-0.318-0.329-0.455
					c0.118-0.616,0.283-1.228,0.491-1.819c0.048-0.141,0.385-0.32,0.485-0.273c0.248,0.124,0.435,0.364,0.639,0.551
					C214.904,857.477,214.707,858.076,214.434,858.644z"/>
				<path fill="#FFFFFF" d="M284.889,839.191c0.079-0.186,0.237-0.33,0.369-0.493c0.169,0.21,0.429,0.415,0.487,0.653
					c0.066,0.297,0.01,0.644-0.08,0.941c-0.051,0.171-0.339,0.426-0.421,0.393c-0.255-0.101-0.463-0.316-0.674-0.474
					C284.698,839.804,284.76,839.482,284.889,839.191z"/>
				<path fill="#FFFFFF" d="M198.221,824.023c-0.217-0.332-0.594-0.652-0.618-0.996c-0.044-0.502,0.155-1.028,0.294-1.531
					c0.053-0.18,0.242-0.321,0.371-0.478c0.108,0.159,0.294,0.308,0.318,0.479c0.086,0.521,0.114,1.054,0.188,1.854
					C198.666,823.473,198.444,823.75,198.221,824.023z"/>
				<path fill="#FFFFFF" d="M254.852,741.147c0.17-0.071,0.485-0.05,0.613,0.064c0.4,0.364,0.795,0.763,1.092,1.206
					c0.128,0.196,0.145,0.685,0.004,0.799c-0.208,0.164-0.742,0.28-0.887,0.148c-0.522-0.459-0.939-1.029-1.344-1.505
					C254.615,741.459,254.699,741.213,254.852,741.147z"/>
				<path fill="#FFFFFF" d="M198.578,810.99c0.561-0.251,1.306,0.709,1.164,1.588c-0.031,0.226-0.415,0.397-0.639,0.6
					c-0.387-0.431-0.771-0.854-1.179-1.306C198.229,811.446,198.341,811.095,198.578,810.99z"/>
				<path fill="#FFFFFF" d="M294.092,783.401c0.49-0.016,1.393,1.293,1.175,1.649c-0.08,0.141-0.435,0.266-0.544,0.202
					c-0.572-0.354-1.11-0.764-1.831-1.288C293.523,783.661,293.803,783.415,294.092,783.401z"/>
				<path fill="#FFFFFF" d="M213.372,782.52c0.272,0.085,0.636,0.195,0.748,0.413c0.131,0.253,0.115,0.632,0.054,0.936
					c-0.061,0.264-0.275,0.502-0.418,0.747c-0.189-0.226-0.439-0.427-0.546-0.684c-0.125-0.289-0.125-0.628-0.177-0.925
					C213.158,782.829,213.312,782.503,213.372,782.52z"/>
				<path fill="#FFFFFF" d="M231.18,805.792c0.318,0.09,0.563,0.494,0.776,0.803c0.04,0.055-0.258,0.461-0.302,0.438
					c-0.664-0.219-1.312-0.488-1.959-0.757c-0.032-0.011,0.006-0.186,0.021-0.495C230.201,805.776,230.728,805.668,231.18,805.792z"
					/>
				<path fill="#FFFFFF" d="M195.017,772.768c-0.426-0.641-0.849-1.284-1.233-1.958c-0.039-0.068,0.163-0.385,0.294-0.402
					c0.189-0.036,0.53,0.018,0.61,0.146c0.337,0.56,0.625,1.154,0.88,1.76c0.048,0.119-0.149,0.338-0.23,0.507
					C195.232,772.806,195.062,772.831,195.017,772.768z"/>
				<path fill="#FFFFFF" d="M264.286,738.513c-0.003,0.005-0.264-0.027-0.271-0.063c-0.091-0.481-0.231-0.977-0.215-1.455
					c0.023-0.415,0.203-0.835,0.354-1.236c0.05-0.113,0.241-0.185,0.365-0.271c0.03,0.097,0.094,0.201,0.088,0.295
					c-0.007,0.43-0.029,0.865-0.076,1.81C264.532,737.567,264.42,738.044,264.286,738.513z"/>
				<path fill="#FFFFFF" d="M202.792,845.127c-0.3-0.098-0.715-0.117-0.872-0.319c-0.229-0.292-0.272-0.719-0.395-1.096
					c0.605-0.03,1.217-0.066,1.817-0.104c-0.08,0.368-0.121,0.744-0.241,1.098c-0.066,0.187-0.256,0.331-0.391,0.495
					L202.792,845.127z"/>
				<path fill="#FFFFFF" d="M161.678,853.331c0.264-0.004,0.77,0.279,0.749,0.386c-0.075,0.593-0.28,1.168-0.441,1.746
					c-0.155-0.132-0.368-0.239-0.461-0.408c-0.194-0.359-0.333-0.76-0.526-1.229C161.251,853.633,161.466,853.33,161.678,853.331z"
					/>
				<path fill="#FFFFFF" d="M297.352,843.846c0.173-0.031,0.531,0.097,0.546,0.196c0.117,0.91,0.175,1.83,0.231,2.749
					c0.006,0.025-0.248,0.091-0.248,0.091c-0.296-0.772-0.576-1.556-0.858-2.33c-0.036-0.098-0.034-0.209-0.054-0.314
					C297.091,844.101,297.208,843.874,297.352,843.846z"/>
				<path fill="#FFFFFF" d="M189.502,708.302c-0.069,0.205-0.174,0.387-0.263,0.58c-0.163-0.227-0.377-0.438-0.469-0.691
					c-0.113-0.298-0.232-0.671-0.142-0.946c0.084-0.246,0.419-0.529,0.682-0.576c0.273-0.047,0.597,0.176,0.578,0.162
					C189.672,707.664,189.604,707.985,189.502,708.302z"/>
				<path fill="#FFFFFF" d="M185.115,849.429c-0.012-0.042,0.449-0.23,0.454-0.224c0.298,0.533,0.568,1.069,0.845,1.619
					c-0.194,0.047-0.384,0.098-0.85,0.216C185.406,850.504,185.232,849.978,185.115,849.429z"/>
				<path fill="#FFFFFF" d="M175.444,854.861c0.264-0.264,0.476-0.695,0.782-0.777c0.504-0.125,1.193-0.103,1.106,0.687
					c-0.03,0.307-0.454,0.571-0.812,0.991C176.05,855.365,175.747,855.111,175.444,854.861z"/>
				<path fill="#FFFFFF" d="M196.971,847.763c-0.29-0.25-0.554-0.565-0.69-0.91c-0.034-0.092,0.543-0.569,0.62-0.523
					c0.314,0.188,0.539,0.515,0.914,0.914C197.398,847.502,197.022,847.815,196.971,847.763z"/>
				<path fill="#FFFFFF" d="M164.867,799.795c0.629,0.374,1.267,0.739,1.873,1.147c0.054,0.039-0.021,0.447-0.126,0.496
					c-0.535,0.246-1.879-0.529-2.057-1.142C164.656,800.13,164.765,799.96,164.867,799.795z"/>
				<path fill="#FFFFFF" d="M177.22,810.089c-0.017-0.031,0.232-0.18,0.359-0.277c0.368,0.516,0.73,1.022,1.068,1.55
					c0.012,0.02-0.263,0.213-0.514,0.41C177.816,811.199,177.504,810.652,177.22,810.089z"/>
				<path fill="#FFFFFF" d="M197.016,858.591c-0.199-0.314-0.452-0.604-0.584-0.935c-0.106-0.271-0.104-0.609-0.06-0.901
					c0.022-0.145,0.271-0.339,0.423-0.34c0.13-0.004,0.348,0.213,0.384,0.36c0.075,0.302,0.052,0.623,0.067,1.052
					C197.189,858.011,197.106,858.3,197.016,858.591z"/>
				<path fill="#FFFFFF" d="M236.819,823.159c0.233-0.061,0.511,0.015,0.77,0.028c-0.131,0.289-0.177,0.724-0.401,0.845
					c-0.327,0.183-0.781,0.171-1.181,0.162c-0.1-0.002-0.191-0.328-0.322-0.573C236.063,823.461,236.429,823.268,236.819,823.159z"
					/>
				<path fill="#FFFFFF" d="M282.563,820.264c0.171,0.3,0.379,0.59,0.479,0.908c0.03,0.101-0.237,0.296-0.376,0.441
					c-0.21-0.304-0.42-0.612-0.601-0.879C282.301,820.512,282.434,820.395,282.563,820.264z"/>
				<path fill="#FFFFFF" d="M294.66,795.047c-0.223-0.446-0.474-0.885-0.648-1.352c-0.033-0.081,0.246-0.283,0.383-0.435
					c0.244,0.264,0.482,0.521,0.7,0.757C294.898,794.489,294.775,794.767,294.66,795.047z"/>
				<path fill="#FFFFFF" d="M260.56,782.543c-0.064-0.325-0.138-0.633-0.176-0.961c-0.028-0.217-0.018-0.442,0.009-0.658
					c0.014-0.098,0.086-0.195,0.131-0.287c0.131,0.095,0.338,0.17,0.383,0.292c0.065,0.197,0.022,0.437,0.028,0.889
					C260.874,781.935,260.712,782.236,260.56,782.543z"/>
				<path fill="#FFFFFF" d="M199.702,713.357c-0.026-0.038,0.468-0.526,0.563-0.485c0.354,0.167,0.693,0.429,0.912,0.742
					c0.058,0.079-0.312,0.465-0.599,0.842C200.211,714.021,199.92,713.71,199.702,713.357z"/>
				<path fill="#FFFFFF" d="M238.151,858.368c-0.064-0.091,0.153-0.346,0.239-0.529c0.333,0.364,0.7,0.715,0.986,1.108
					c0.078,0.104-0.065,0.359-0.16,0.771C238.794,859.195,238.438,858.803,238.151,858.368z"/>
				<path fill="#FFFFFF" d="M202.711,845.201c0.535,0.785,1.09,1.562,1.589,2.364c0.06,0.098-0.127,0.344-0.201,0.522
					c-0.183-0.08-0.486-0.116-0.53-0.242c-0.282-0.898-0.522-1.808-0.773-2.719L202.711,845.201z"/>
				<path fill="#FFFFFF" d="M209.73,851.761c0.172,0.092,0.442,0.149,0.496,0.282c0.143,0.392,0.225,0.807,0.266,1.221
					c0.018,0.179-0.123,0.377-0.193,0.56c-0.163-0.095-0.423-0.155-0.471-0.293c-0.143-0.387-0.207-0.81-0.29-1.192
					C209.607,852.123,209.669,851.947,209.73,851.761z"/>
				<path fill="#FFFFFF" d="M235.085,741.329c0.244,0.008,0.48,0.239,0.714,0.366c-0.256,0.232-0.489,0.561-0.797,0.658
					c-0.146,0.047-0.437-0.344-0.779-0.646C234.588,741.532,234.843,741.315,235.085,741.329z"/>
				<path fill="#FFFFFF" d="M275.123,794.354c0.022-0.153,0.241-0.28,0.375-0.415c0.131,0.205,0.381,0.428,0.362,0.628
					c-0.022,0.224-0.282,0.427-0.609,0.857C275.177,794.887,275.082,794.607,275.123,794.354z"/>
			</g>
			<g>
				<path fill="#FFFFFF" d="M344.273,104.276c-0.244,0.137-0.717-0.125-1.089-0.23c-0.079-0.026-0.125-0.175-0.191-0.266
					c-0.666-0.96-1.247-1.286-1.579,0.223c-0.279-0.073-0.685-0.058-0.818-0.237c-0.152-0.208-0.195-0.758-0.053-0.879
					c0.711-0.599,1.824-0.781,1.696-2.136c-0.014-0.222,0.595-0.683,0.931-0.695c0.229-0.003,0.579,0.523,0.707,0.885
					c0.255,0.717,0.395,1.479,0.689,2.646C344.567,103.581,344.531,104.125,344.273,104.276z"/>
				<path fill="#FFFFFF" d="M381.975,109.369c0.988,0.049,1.674-0.24,2.387-0.825c0.11-0.086,0.695,0.153,0.717,0.297
					c0.073,0.404,0.101,1.114-0.101,1.216c-1.304,0.688-2.952,0.568-4.085,1.742c-0.023,0.024-0.311-0.221-0.479-0.334
					C380.235,110.582,381.002,109.324,381.975,109.369z"/>
				<path fill="#FFFFFF" d="M345.26,120.895c-0.616,1.257-1.289,2.483-1.981,3.696c-0.076,0.141-0.402,0.231-0.578,0.185
					c-0.146-0.042-0.35-0.318-0.329-0.47c0.109-0.873,0.074-1.854,0.473-2.571c0.391-0.7,1.245-1.131,2.029-1.793
					C345.063,120.399,345.34,120.735,345.26,120.895z"/>
				<path fill="#FFFFFF" d="M384.711,147.354c-0.448-0.205-1.145-0.547-1.174-0.871c-0.036-0.547,0.267-1.225,0.646-1.638
					c0.156-0.17,0.885,0.168,1.335,0.323c0.193,0.063,0.383,0.223,0.51,0.393c0.244,0.332,0.663,0.741,0.612,1.044
					c-0.042,0.292-0.589,0.507-0.828,0.683C385.336,147.33,384.97,147.473,384.711,147.354z"/>
				<path fill="#FFFFFF" d="M380.273,174.229c-0.141-0.017-0.352-0.26-0.38-0.424c-0.03-0.184,0.063-0.523,0.189-0.571
					c0.91-0.372,1.826-0.743,2.765-0.966c0.282-0.066,0.877,0.284,0.95,0.552c0.104,0.337-0.084,0.901-0.343,1.151
					c-0.284,0.279-0.793,0.309-1.016,0.385C381.584,174.316,380.924,174.303,380.273,174.229z"/>
				<path fill="#FFFFFF" d="M327.011,115.427c-0.303-0.108-0.623-0.173-0.906-0.319c-0.262-0.127-0.479-0.337-0.72-0.512
					c0.236-0.325,0.432-0.703,0.728-0.95c0.224-0.195,0.604-0.195,0.886-0.324c1.14-0.497,1.48-0.319,1.589,0.856
					C328.721,115.587,328.318,115.904,327.011,115.427z"/>
				<path fill="#FFFFFF" d="M368.028,158.187c0.321-0.545,0.539-1.231,0.997-1.592c0.303-0.23,1.035-0.114,1.431,0.108
					c0.261,0.149,0.487,0.905,0.343,1.15c-0.238,0.395-0.785,0.6-1.227,0.893C368.981,158.538,368.507,158.365,368.028,158.187z"/>
				<path fill="#FFFFFF" d="M365.295,147.718c-0.952,0.153-1.944,0.071-2.921,0.04c-0.151-0.007-0.432-0.243-0.422-0.333
					c0.036-0.194,0.185-0.47,0.352-0.518c1.033-0.342,2.072-0.662,3.129-0.913c0.199-0.053,0.484,0.266,0.946,0.538
					C365.949,147.028,365.666,147.653,365.295,147.718z"/>
				<path fill="#FFFFFF" d="M422.062,94.912c0.486-0.349,0.984-1.015,1.451-0.993c1.004,0.052,0.977,1.033,0.914,1.796
					c-0.023,0.361-0.332,0.705-0.7,1.41C423.033,96.204,422.551,95.557,422.062,94.912z"/>
				<path fill="#FFFFFF" d="M334.437,160.888c0.906-0.791,1.824-1.57,2.773-2.285c0.181-0.143,0.812-0.024,0.826,0.06
					c0.081,0.388,0.129,1.124-0.005,1.175c-1.205,0.436-2.344,0.943-3.287,1.844c-0.059,0.057-0.359-0.139-0.55-0.229
					C334.274,161.264,334.306,161.008,334.437,160.888z"/>
				<path fill="#FFFFFF" d="M428.943,154.878c-0.109,0.281-0.262,0.659-0.486,0.746c-0.189,0.072-0.588-0.141-0.763-0.338
					c-0.292-0.321-0.504-0.723-0.696-1.111c-0.366-0.722,0.132-0.989,0.67-1.183c0.857-0.305,1.212,0.037,1.299,1.234
					C428.969,154.444,429.017,154.684,428.943,154.878z"/>
				<path fill="#FFFFFF" d="M353.487,100.925c-0.175-0.139-0.273-0.585-0.2-0.821c0.455-1.455,2.226,0.783,2.646-0.936
					c0.016-0.063,0.35-0.046,0.532-0.063c0.019,0.402,0.192,1.061,0.024,1.172c-0.609,0.397-1.343,0.619-1.955,0.873
					C354.092,101.069,353.714,101.102,353.487,100.925z"/>
				<path fill="#FFFFFF" d="M372.997,130.249c-0.183-0.033-0.478-0.205-0.488-0.326c-0.022-0.309-0.01-0.823,0.164-0.913
					c0.567-0.304,1.201-0.501,1.833-0.614c0.179-0.03,0.568,0.33,0.612,0.564c0.059,0.279-0.061,0.749-0.267,0.887
					c-0.329,0.229-0.791,0.258-0.489,0.171C373.421,130.19,373.2,130.285,372.997,130.249z"/>
				<path fill="#FFFFFF" d="M366.923,178.225c0.277,0.053,0.741,0.191,0.762,0.344c0.055,0.401,0.009,0.876-0.162,1.242
					c-0.378,0.789-0.566-0.076-0.857-0.141c-0.513-0.128-1.047-0.173-1.554-0.301c-0.165-0.042-0.393-0.239-0.407-0.38
					c-0.015-0.129,0.192-0.393,0.34-0.427c0.413-0.091,0.843-0.092,1.033-0.104C366.517,178.326,366.729,178.189,366.923,178.225z"
					/>
				<path fill="#FFFFFF" d="M408.309,143.211c0.461-0.276,0.927-0.534,1.414-0.772c0.214-0.106,0.473-0.149,0.713-0.22
					c0.011,0.331,0.148,0.718,0.031,0.97c-0.421,0.889-1.065,1.424-2.091,0.909c-0.178-0.093-0.304-0.3-0.452-0.461
					C408.05,143.493,408.15,143.309,408.309,143.211z"/>
				<path fill="#FFFFFF" d="M322.434,137.339c-0.127-0.039-0.26-0.361-0.231-0.528c0.027-0.152,0.267-0.397,0.407-0.387
					c0.626,0.033,1.254,0.114,1.868,0.24c0.146,0.029,0.37,0.338,0.337,0.444c-0.09,0.263-0.303,0.48-0.459,0.708
					C323.653,137.648,323.031,137.534,322.434,137.339z"/>
				<path fill="#FFFFFF" d="M351.231,204.519c0.194,0.053,0.358,0.19,0.539,0.298c-0.187,0.197-0.354,0.481-0.582,0.572
					c-0.286,0.106-0.637,0.097-0.944,0.047c-0.175-0.026-0.467-0.277-0.445-0.364c0.065-0.266,0.251-0.501,0.378-0.731
					C350.6,204.413,350.925,204.43,351.231,204.519z"/>
				<path fill="#FFFFFF" d="M354.543,116.595c0.3-0.258,0.566-0.676,0.904-0.746c0.491-0.111,1.04,0.015,1.557,0.084
					c0.186,0.028,0.351,0.197,0.523,0.303c-0.144,0.128-0.265,0.333-0.433,0.38c-0.505,0.156-1.028,0.256-1.812,0.437
					C355.149,116.963,354.846,116.781,354.543,116.595z"/>
				<path fill="#FFFFFF" d="M444.315,161.503c0.093,0.158,0.113,0.474,0.019,0.616c-0.307,0.446-0.648,0.89-1.049,1.245
					c-0.177,0.153-0.658,0.235-0.789,0.111c-0.191-0.184-0.379-0.698-0.269-0.858c0.385-0.58,0.895-1.07,1.31-1.535
					C443.975,161.311,444.229,161.361,444.315,161.503z"/>
				<path fill="#FFFFFF" d="M367.506,115.188c0.324,0.522-0.527,1.389-1.416,1.368c-0.229,0-0.45-0.357-0.682-0.553
					c0.375-0.441,0.744-0.879,1.135-1.344C367.007,114.904,367.37,114.966,367.506,115.188z"/>
				<path fill="#FFFFFF" d="M407.753,206.095c0.083,0.484-1.093,1.554-1.476,1.387c-0.149-0.06-0.321-0.394-0.272-0.512
					c0.273-0.614,0.605-1.203,1.027-1.988C407.419,205.567,407.701,205.811,407.753,206.095z"/>
				<path fill="#FFFFFF" d="M397.715,125.997c-0.047,0.281-0.107,0.656-0.309,0.797c-0.232,0.164-0.61,0.199-0.919,0.179
					c-0.27-0.024-0.535-0.206-0.797-0.313c0.197-0.218,0.363-0.493,0.604-0.633c0.271-0.163,0.604-0.208,0.893-0.3
					C397.38,125.827,397.724,125.936,397.715,125.997z"/>
				<path fill="#FFFFFF" d="M377.063,146.788c-0.046,0.328-0.414,0.625-0.69,0.877c-0.049,0.048-0.491-0.192-0.475-0.239
					c0.127-0.688,0.305-1.366,0.485-2.044c0.005-0.033,0.184-0.02,0.492-0.045C376.947,145.815,377.125,146.323,377.063,146.788z"/>
				<path fill="#FFFFFF" d="M404.896,106.492c0.578-0.509,1.158-1.015,1.773-1.487c0.063-0.048,0.404,0.11,0.438,0.237
					c0.062,0.183,0.055,0.528-0.062,0.624c-0.51,0.41-1.061,0.775-1.626,1.11c-0.111,0.064-0.354-0.102-0.534-0.159
					C404.888,106.71,404.839,106.545,404.896,106.492z"/>
				<path fill="#FFFFFF" d="M448.2,170.495c-0.006-0.002-0.009-0.264,0.026-0.276c0.466-0.155,0.937-0.362,1.414-0.41
					c0.413-0.034,0.854,0.088,1.271,0.183c0.119,0.035,0.216,0.214,0.318,0.326c-0.092,0.043-0.187,0.121-0.28,0.127
					c-0.427,0.051-0.861,0.087-1.803,0.168C449.17,170.611,448.683,170.564,448.2,170.495z"/>
				<path fill="#FFFFFF" d="M334.252,123.978c0.056-0.311,0.02-0.724,0.199-0.907c0.258-0.267,0.674-0.367,1.031-0.539
					c0.111,0.596,0.231,1.196,0.349,1.786c-0.376-0.029-0.754-0.02-1.12-0.091c-0.193-0.041-0.363-0.208-0.543-0.32L334.252,123.978
					z"/>
				<path fill="#FFFFFF" d="M320.565,84.351c0.039,0.259-0.174,0.8-0.28,0.794c-0.598,0.005-1.195-0.12-1.791-0.202
					c0.109-0.172,0.188-0.398,0.343-0.513c0.328-0.242,0.707-0.432,1.146-0.687C320.208,83.968,320.538,84.14,320.565,84.351z"/>
				<path fill="#FFFFFF" d="M348.305,217.497c0.054,0.167-0.025,0.538-0.121,0.567c-0.886,0.239-1.79,0.421-2.692,0.601
					c-0.024,0.01-0.124-0.234-0.124-0.234c0.726-0.396,1.463-0.78,2.193-1.165c0.091-0.049,0.202-0.062,0.305-0.095
					C348.017,217.272,348.256,217.357,348.305,217.497z"/>
				<path fill="#FFFFFF" d="M468.025,92.313c-0.213-0.042-0.408-0.12-0.61-0.182c0.201-0.192,0.383-0.433,0.621-0.559
					c0.279-0.151,0.633-0.32,0.919-0.268c0.255,0.049,0.58,0.343,0.662,0.597c0.083,0.265-0.094,0.615-0.082,0.595
					C468.68,92.396,468.352,92.372,468.025,92.313z"/>
				<path fill="#FFFFFF" d="M327.6,107.044c0.04-0.017,0.289,0.414,0.283,0.42c-0.487,0.367-0.982,0.708-1.49,1.056
					c-0.072-0.187-0.148-0.367-0.328-0.813C326.574,107.478,327.071,107.235,327.6,107.044z"/>
				<path fill="#FFFFFF" d="M320.909,98.197c0.298,0.226,0.754,0.378,0.877,0.67c0.191,0.482,0.263,1.169-0.531,1.189
					c-0.308,0.012-0.627-0.375-1.091-0.67C320.492,98.865,320.703,98.53,320.909,98.197z"/>
				<path fill="#FFFFFF" d="M330.854,118.566c0.209-0.321,0.486-0.625,0.809-0.807c0.087-0.046,0.638,0.46,0.602,0.544
					c-0.143,0.336-0.437,0.604-0.782,1.029C331.169,118.955,330.809,118.625,330.854,118.566z"/>
				<path fill="#FFFFFF" d="M374.041,80.273c-0.285,0.673-0.562,1.354-0.884,2.011c-0.031,0.058-0.446,0.04-0.51-0.059
					c-0.314-0.497,0.271-1.932,0.854-2.191C373.68,80.109,373.863,80.194,374.041,80.273z"/>
				<path fill="#FFFFFF" d="M365.512,93.904c0.028-0.021,0.208,0.206,0.322,0.318c-0.461,0.434-0.913,0.862-1.391,1.269
					c-0.018,0.014-0.246-0.231-0.476-0.454C364.492,94.645,364.992,94.26,365.512,93.904z"/>
				<path fill="#FFFFFF" d="M320.131,120.074c0.285-0.239,0.537-0.529,0.847-0.705c0.254-0.143,0.59-0.186,0.886-0.181
					c0.146,0.002,0.372,0.222,0.394,0.373c0.021,0.128-0.164,0.373-0.306,0.429c-0.288,0.116-0.61,0.136-1.032,0.209
					C320.729,120.168,320.432,120.125,320.131,120.074z"/>
				<path fill="#FFFFFF" d="M360.617,154.723c0.093,0.223,0.056,0.508,0.077,0.766c-0.305-0.09-0.741-0.077-0.892-0.284
					c-0.225-0.299-0.275-0.75-0.32-1.147c-0.011-0.099,0.299-0.234,0.524-0.397C360.217,154.015,360.458,154.351,360.617,154.723z"
					/>
				<path fill="#FFFFFF" d="M369.67,199.656c-0.272,0.21-0.532,0.455-0.834,0.598c-0.096,0.044-0.325-0.194-0.489-0.313
					c0.272-0.249,0.55-0.498,0.79-0.713C369.39,199.43,369.523,199.545,369.67,199.656z"/>
				<path fill="#FFFFFF" d="M396.291,208.232c0.413-0.281,0.812-0.589,1.252-0.825c0.075-0.044,0.312,0.206,0.481,0.321
					c-0.228,0.278-0.45,0.548-0.654,0.796C396.876,208.394,396.584,208.309,396.291,208.232z"/>
				<path fill="#FFFFFF" d="M404.071,172.754c0.312-0.107,0.608-0.222,0.928-0.304c0.211-0.058,0.436-0.077,0.653-0.08
					c0.099,0,0.204,0.058,0.302,0.09c-0.075,0.143-0.122,0.357-0.237,0.418c-0.186,0.092-0.43,0.082-0.876,0.148
					C404.716,172.984,404.395,172.864,404.071,172.754z"/>
				<path fill="#FFFFFF" d="M464.395,103.104c0.034-0.031,0.584,0.392,0.557,0.493c-0.117,0.374-0.331,0.745-0.613,1.003
					c-0.069,0.068-0.502-0.247-0.913-0.479C463.805,103.697,464.074,103.366,464.395,103.104z"/>
				<path fill="#FFFFFF" d="M325.912,160.803c0.082-0.076,0.363,0.105,0.557,0.166c-0.316,0.378-0.613,0.791-0.965,1.127
					c-0.092,0.091-0.364-0.016-0.785-0.054C325.18,161.55,325.52,161.146,325.912,160.803z"/>
				<path fill="#FFFFFF" d="M334.168,123.907c-0.707,0.636-1.401,1.292-2.129,1.895c-0.088,0.071-0.357-0.08-0.544-0.13
					c0.055-0.191,0.049-0.498,0.167-0.558c0.853-0.401,1.722-0.761,2.591-1.134L334.168,123.907z"/>
				<path fill="#FFFFFF" d="M328.617,131.75c-0.068,0.183-0.089,0.458-0.213,0.529c-0.368,0.194-0.77,0.332-1.174,0.428
					c-0.175,0.042-0.391-0.071-0.58-0.116c0.071-0.174,0.096-0.44,0.227-0.507c0.364-0.192,0.774-0.313,1.142-0.448
					C328.241,131.676,328.424,131.713,328.617,131.75z"/>
				<path fill="#FFFFFF" d="M441.462,141.943c0.026,0.243-0.172,0.508-0.266,0.756c-0.265-0.222-0.622-0.409-0.761-0.701
					c-0.065-0.138,0.282-0.479,0.536-0.859C441.193,141.478,441.443,141.701,441.462,141.943z"/>
				<path fill="#FFFFFF" d="M394.337,188.781c0.154,0.002,0.31,0.201,0.463,0.316c-0.187,0.157-0.372,0.435-0.573,0.443
					c-0.225,0.007-0.461-0.222-0.934-0.487C393.816,188.906,394.08,188.775,394.337,188.781z"/>
			</g>
			<g>
				<path fill="#F2E0C7" d="M947.205,650.46c0.198,0.196,0.073,0.724,0.071,1.109c-0.003,0.084-0.135,0.168-0.205,0.256
					c-0.745,0.902-0.901,1.548,0.641,1.461c0.006,0.289,0.129,0.674-0.008,0.853c-0.159,0.202-0.678,0.392-0.833,0.287
					c-0.769-0.523-1.244-1.546-2.514-1.058c-0.209,0.073-0.818-0.388-0.92-0.708c-0.065-0.22,0.348-0.699,0.662-0.92
					c0.621-0.438,1.318-0.778,2.362-1.378C946.456,650.363,946.988,650.251,947.205,650.46z"/>
				<path fill="#F2E0C7" d="M941.947,612.781c-0.218-0.965-0.682-1.548-1.438-2.077c-0.112-0.083-0.04-0.711,0.093-0.771
					c0.369-0.179,1.046-0.396,1.197-0.23c1.015,1.07,1.343,2.691,2.778,3.464c0.031,0.018-0.129,0.359-0.191,0.553
					C943.584,614.129,942.166,613.729,941.947,612.781z"/>
				<path fill="#F2E0C7" d="M962.942,645.029c1.377,0.256,2.737,0.573,4.092,0.912c0.157,0.037,0.331,0.326,0.335,0.508
					c-0.002,0.151-0.213,0.423-0.364,0.443c-0.869,0.13-1.805,0.428-2.602,0.237c-0.78-0.188-1.426-0.893-2.275-1.47
					C962.518,645.354,962.767,644.996,962.942,645.029z"/>
				<path fill="#F2E0C7" d="M977.789,599.908c-0.076,0.485-0.219,1.249-0.521,1.363c-0.518,0.183-1.252,0.075-1.752-0.18
					c-0.206-0.104-0.077-0.896-0.05-1.373c0.01-0.203,0.112-0.428,0.241-0.596c0.254-0.325,0.535-0.838,0.842-0.87
					c0.293-0.04,0.646,0.429,0.88,0.612C977.596,599.312,977.834,599.627,977.789,599.908z"/>
				<path fill="#F2E0C7" d="M1004.865,596.937c0.021,0.141-0.155,0.409-0.306,0.481c-0.169,0.078-0.521,0.079-0.601-0.029
					c-0.604-0.776-1.207-1.559-1.677-2.402c-0.139-0.253,0.038-0.92,0.276-1.063c0.296-0.19,0.89-0.161,1.201,0.02
					c0.346,0.199,0.511,0.681,0.645,0.874C1004.597,595.653,1004.762,596.29,1004.865,596.937z"/>
				<path fill="#F2E0C7" d="M962.595,664.078c-0.022,0.32,0.001,0.646-0.063,0.959c-0.051,0.285-0.195,0.552-0.299,0.83
					c-0.377-0.14-0.793-0.227-1.111-0.443c-0.247-0.163-0.351-0.529-0.551-0.767c-0.785-0.964-0.706-1.339,0.396-1.761
					C962.289,662.389,962.702,662.689,962.595,664.078z"/>
				<path fill="#F2E0C7" d="M992.718,613.053c-0.612-0.162-1.331-0.187-1.802-0.531c-0.304-0.229-0.39-0.967-0.281-1.406
					c0.073-0.29,0.739-0.714,1.014-0.641c0.445,0.124,0.789,0.595,1.191,0.941C992.799,612.04,992.76,612.544,992.718,613.053z"/>
				<path fill="#F2E0C7" d="M983.372,618.507c0.404,0.876,0.593,1.854,0.826,2.803c0.034,0.146-0.118,0.48-0.206,0.495
					c-0.197,0.018-0.503-0.051-0.595-0.198c-0.608-0.903-1.195-1.818-1.722-2.767c-0.105-0.179,0.125-0.54,0.264-1.057
					C982.532,618.062,983.21,618.168,983.372,618.507z"/>
				<path fill="#F2E0C7" d="M917.221,578.072c-0.467-0.374-1.244-0.673-1.348-1.13c-0.221-0.979,0.731-1.218,1.482-1.365
					c0.354-0.073,0.77,0.131,1.547,0.296C918.202,576.79,917.71,577.429,917.221,578.072z"/>
				<path fill="#F2E0C7" d="M1004.372,644.673c-1.006-0.659-2.003-1.332-2.948-2.054c-0.186-0.137-0.242-0.777-0.164-0.812
					c0.352-0.184,1.047-0.427,1.133-0.312c0.744,1.044,1.54,2.004,2.662,2.67c0.071,0.04-0.037,0.383-0.072,0.59
					C1004.779,644.728,1004.523,644.767,1004.372,644.673z"/>
				<path fill="#F2E0C7" d="M973.113,555.283c0.301,0.03,0.705,0.075,0.85,0.268c0.119,0.162,0.022,0.604-0.12,0.826
					c-0.231,0.368-0.561,0.681-0.883,0.971c-0.597,0.546-0.988,0.14-1.319-0.326c-0.525-0.744-0.291-1.178,0.837-1.585
					C972.688,555.376,972.906,555.267,973.113,555.283z"/>
				<path fill="#F2E0C7" d="M941.494,642.49c-0.087,0.205-0.49,0.42-0.736,0.414c-1.524-0.047,0.153-2.354-1.616-2.296
					c-0.064,0.001-0.138-0.325-0.203-0.497c0.382-0.126,0.97-0.472,1.122-0.339c0.547,0.48,0.957,1.125,1.367,1.647
					C941.47,641.869,941.603,642.224,941.494,642.49z"/>
				<path fill="#F2E0C7" d="M964.475,615.798c0.017,0.185-0.069,0.515-0.183,0.559c-0.292,0.104-0.79,0.231-0.923,0.088
					c-0.445-0.465-0.807-1.021-1.086-1.6c-0.076-0.163,0.165-0.637,0.379-0.742c0.253-0.131,0.738-0.144,0.926,0.018
					c0.31,0.256,0.462,0.692,0.297,0.426C964.304,615.406,964.454,615.593,964.475,615.798z"/>
				<path fill="#F2E0C7" d="M1012.312,608.717c-0.024-0.281-0.016-0.765,0.126-0.825c0.371-0.162,0.842-0.244,1.238-0.18
					c0.862,0.151,0.081,0.566,0.096,0.863c0.016,0.529,0.116,1.056,0.129,1.578c0.004,0.17-0.125,0.442-0.256,0.495
					c-0.121,0.049-0.431-0.08-0.504-0.213c-0.198-0.373-0.314-0.787-0.377-0.967C1012.519,609.081,1012.33,608.912,1012.312,608.717
					z"/>
				<path fill="#F2E0C7" d="M967.439,578.3c-0.391-0.369-0.764-0.748-1.125-1.152c-0.159-0.18-0.271-0.416-0.404-0.628
					c0.316-0.1,0.652-0.338,0.926-0.291c0.969,0.164,1.659,0.642,1.439,1.768c-0.042,0.195-0.208,0.373-0.322,0.56
					C967.781,578.473,967.576,578.426,967.439,578.3z"/>
				<path fill="#F2E0C7" d="M984.93,662.58c-0.003,0.132-0.277,0.348-0.446,0.365c-0.153,0.015-0.454-0.15-0.482-0.288
					c-0.138-0.611-0.229-1.239-0.271-1.864c-0.013-0.148,0.224-0.446,0.335-0.443c0.277,0.016,0.544,0.161,0.807,0.251
					C984.898,661.322,984.956,661.951,984.93,662.58z"/>
				<path fill="#F2E0C7" d="M1041.861,616.741c-0.001-0.202,0.087-0.397,0.143-0.6c0.239,0.126,0.559,0.211,0.707,0.406
					c0.179,0.247,0.265,0.586,0.301,0.896c0.021,0.177-0.142,0.525-0.23,0.527c-0.273,0.009-0.551-0.106-0.807-0.167
					C1041.931,617.379,1041.859,617.06,1041.861,616.741z"/>
				<path fill="#F2E0C7" d="M956.299,637.248c-0.33-0.218-0.803-0.362-0.962-0.668c-0.24-0.443-0.266-1.006-0.339-1.521
					c-0.023-0.187,0.096-0.392,0.151-0.586c0.163,0.103,0.391,0.165,0.482,0.313c0.286,0.443,0.523,0.921,0.909,1.628
					C956.49,636.566,956.396,636.908,956.299,637.248z"/>
				<path fill="#F2E0C7" d="M975.351,538.695c0.127-0.133,0.425-0.237,0.587-0.184c0.514,0.175,1.033,0.385,1.481,0.674
					c0.195,0.128,0.404,0.569,0.321,0.73c-0.126,0.233-0.57,0.553-0.755,0.489c-0.662-0.214-1.271-0.572-1.831-0.848
					C975.257,539.076,975.236,538.816,975.351,538.695z"/>
				<path fill="#F2E0C7" d="M951.45,625.146c0.415-0.453,1.479,0.133,1.699,0.995c0.062,0.22-0.223,0.529-0.349,0.805
					c-0.525-0.242-1.047-0.479-1.6-0.73C951.312,625.703,951.273,625.336,951.45,625.146z"/>
				<path fill="#F2E0C7" d="M1028.146,561.886c0.443-0.209,1.791,0.634,1.732,1.047c-0.018,0.161-0.293,0.416-0.419,0.401
					c-0.666-0.098-1.321-0.259-2.192-0.454C1027.728,562.351,1027.887,562.013,1028.146,561.886z"/>
				<path fill="#F2E0C7" d="M953.718,593.141c0.283-0.03,0.661-0.072,0.851,0.083c0.221,0.18,0.356,0.534,0.42,0.836
					c0.05,0.268-0.053,0.57-0.086,0.852c-0.264-0.132-0.572-0.216-0.772-0.41c-0.229-0.216-0.364-0.525-0.529-0.778
					C953.645,593.51,953.656,593.149,953.718,593.141z"/>
				<path fill="#F2E0C7" d="M979.305,607.425c0.328-0.044,0.714,0.229,1.031,0.428c0.06,0.034-0.054,0.525-0.103,0.522
					c-0.697,0.063-1.397,0.073-2.099,0.084c-0.033,0.003-0.068-0.173-0.177-0.462C978.399,607.799,978.84,607.491,979.305,607.425z"
					/>
				<path fill="#F2E0C7" d="M932.999,591.482c-0.646-0.418-1.289-0.841-1.91-1.306c-0.063-0.049-0.003-0.419,0.11-0.486
					c0.16-0.108,0.494-0.195,0.618-0.108c0.531,0.379,1.031,0.812,1.506,1.265c0.092,0.091-0.002,0.37-0.01,0.559
					C933.211,591.433,933.064,591.523,932.999,591.482z"/>
				<path fill="#F2E0C7" d="M982.961,532.531c-0.001,0.006-0.252,0.079-0.272,0.048c-0.274-0.405-0.601-0.803-0.776-1.25
					c-0.144-0.39-0.145-0.846-0.166-1.274c0.001-0.124,0.148-0.266,0.229-0.394c0.066,0.076,0.165,0.146,0.197,0.235
					c0.164,0.397,0.315,0.806,0.648,1.69C982.812,531.566,982.897,532.047,982.961,532.531z"/>
				<path fill="#F2E0C7" d="M968.877,654.8c-0.312,0.029-0.701,0.177-0.927,0.053c-0.326-0.176-0.535-0.55-0.797-0.848
					c0.544-0.269,1.09-0.546,1.627-0.817c0.072,0.369,0.185,0.731,0.214,1.104c0.014,0.197-0.104,0.405-0.161,0.609L968.877,654.8z"
					/>
				<path fill="#F2E0C7" d="M934.406,678.661c0.239-0.108,0.816-0.05,0.839,0.056c0.168,0.574,0.208,1.183,0.289,1.778
					c-0.194-0.06-0.433-0.073-0.585-0.191c-0.322-0.252-0.607-0.565-0.971-0.918C934.134,679.108,934.211,678.744,934.406,678.661z"
					/>
				<path fill="#F2E0C7" d="M1055.148,616.062c0.146-0.097,0.524-0.122,0.578-0.036c0.47,0.788,0.888,1.609,1.304,2.431
					c0.017,0.021-0.191,0.183-0.191,0.183c-0.577-0.592-1.146-1.199-1.713-1.798c-0.072-0.075-0.114-0.179-0.174-0.268
					C1055.01,616.4,1055.027,616.146,1055.148,616.062z"/>
				<path fill="#F2E0C7" d="M902.33,534.512c0.018,0.216-0.006,0.425-0.011,0.637c-0.239-0.144-0.521-0.252-0.705-0.448
					c-0.222-0.229-0.479-0.522-0.505-0.812c-0.021-0.26,0.174-0.652,0.396-0.8c0.233-0.151,0.617-0.075,0.596-0.081
					C902.232,533.86,902.299,534.182,902.33,534.512z"/>
				<path fill="#F2E0C7" d="M954.363,665.77c-0.025-0.034,0.322-0.39,0.329-0.386c0.485,0.371,0.946,0.755,1.419,1.15
					c-0.161,0.12-0.314,0.242-0.695,0.535C955.059,666.641,954.69,666.228,954.363,665.77z"/>
				<path fill="#F2E0C7" d="M947.647,674.597c0.137-0.347,0.16-0.827,0.409-1.024c0.413-0.315,1.055-0.568,1.288,0.19
					c0.094,0.294-0.19,0.705-0.352,1.232C948.403,674.819,948.024,674.705,947.647,674.597z"/>
				<path fill="#F2E0C7" d="M964.583,659.53c-0.366-0.114-0.733-0.298-0.995-0.561c-0.068-0.071,0.271-0.737,0.36-0.727
					c0.362,0.048,0.699,0.258,1.203,0.476C964.871,659.122,964.65,659.56,964.583,659.53z"/>
				<path fill="#F2E0C7" d="M916.065,628.263c0.727,0.094,1.456,0.176,2.175,0.31c0.065,0.014,0.158,0.419,0.082,0.506
					c-0.394,0.438-1.935,0.26-2.341-0.232C916.006,628.653,916.038,628.455,916.065,628.263z"/>
				<path fill="#F2E0C7" d="M931.49,632.803c-0.026-0.022,0.144-0.257,0.221-0.397c0.543,0.328,1.076,0.648,1.596,0.998
					c0.019,0.013-0.156,0.301-0.309,0.581C932.48,633.586,931.976,633.207,931.49,632.803z"/>
				<path fill="#F2E0C7" d="M968.925,669.45c-0.308-0.209-0.654-0.374-0.906-0.625c-0.206-0.206-0.339-0.519-0.413-0.804
					c-0.038-0.143,0.112-0.419,0.253-0.48c0.117-0.055,0.403,0.058,0.495,0.179c0.188,0.247,0.295,0.551,0.48,0.938
					C968.854,668.849,968.893,669.147,968.925,669.45z"/>
				<path fill="#F2E0C7" d="M991.38,621.123c0.189-0.148,0.475-0.189,0.717-0.28c-0.006,0.317,0.126,0.734-0.033,0.935
					c-0.228,0.298-0.649,0.468-1.019,0.618c-0.093,0.037-0.307-0.226-0.523-0.398C990.806,621.699,991.063,621.377,991.38,621.123z"
					/>
				<path fill="#F2E0C7" d="M1032.21,600.295c0.274,0.207,0.581,0.391,0.8,0.644c0.067,0.079-0.1,0.364-0.17,0.554
					c-0.314-0.195-0.629-0.396-0.9-0.568C1032.066,600.626,1032.143,600.467,1032.21,600.295z"/>
				<path fill="#F2E0C7" d="M1033.293,572.348c-0.382-0.322-0.786-0.624-1.132-0.982c-0.062-0.062,0.114-0.357,0.179-0.551
					c0.329,0.144,0.649,0.285,0.943,0.416C1033.291,571.741,1033.288,572.045,1033.293,572.348z"/>
				<path fill="#F2E0C7" d="M997.031,574.418c-0.188-0.272-0.378-0.525-0.543-0.812c-0.112-0.188-0.191-0.398-0.252-0.608
					c-0.027-0.095,0-0.213,0.005-0.315c0.157,0.035,0.377,0.022,0.468,0.116c0.138,0.155,0.193,0.392,0.379,0.804
					C997.079,573.735,997.051,574.076,997.031,574.418z"/>
				<path fill="#F2E0C7" d="M913.699,535.099c-0.039-0.023,0.221-0.667,0.324-0.668c0.392,0.012,0.807,0.118,1.132,0.319
					c0.083,0.05-0.103,0.55-0.216,1.01C914.43,535.507,914.039,535.338,913.699,535.099z"/>
				<path fill="#F2E0C7" d="M1006.588,652.905c-0.096-0.058,0.004-0.378,0.009-0.581c0.45,0.203,0.927,0.378,1.347,0.627
					c0.111,0.062,0.082,0.354,0.158,0.77C1007.506,653.409,1007.024,653.19,1006.588,652.905z"/>
				<path fill="#F2E0C7" d="M968.833,654.9c0.804,0.508,1.62,1,2.397,1.538c0.093,0.066,0.021,0.366,0.022,0.561
					c-0.198-0.002-0.492,0.085-0.583-0.013c-0.616-0.712-1.197-1.452-1.789-2.188L968.833,654.9z"/>
				<path fill="#F2E0C7" d="M977.881,658.132c0.193,0.015,0.465-0.039,0.566,0.062c0.287,0.303,0.527,0.651,0.729,1.016
					c0.088,0.157,0.037,0.395,0.046,0.59c-0.188-0.021-0.45,0.025-0.55-0.082c-0.283-0.299-0.51-0.66-0.738-0.979
					C977.912,658.514,977.898,658.327,977.881,658.132z"/>
				<path fill="#F2E0C7" d="M957.282,546.714c0.227-0.089,0.536,0.029,0.8,0.055c-0.143,0.314-0.226,0.708-0.469,0.919
					c-0.116,0.102-0.537-0.142-0.974-0.283C956.907,547.099,957.055,546.799,957.282,546.714z"/>
				<path fill="#F2E0C7" d="M1015.088,579.472c-0.039-0.149,0.11-0.353,0.181-0.529c0.202,0.136,0.519,0.241,0.581,0.432
					c0.067,0.214-0.09,0.504-0.218,1.029C1015.349,579.939,1015.152,579.722,1015.088,579.472z"/>
			</g>
		</g>
	</g>
</g>
</svg>
