<svg xmlns="http://www.w3.org/2000/svg" xmlns:xlink="http://www.w3.org/1999/xlink" xmlns:svgjs="http://svgjs.dev/svgjs" version="1.1" width="128" height="128" viewBox="0 0 128 128"><g transform="matrix(0.8046875,0,0,0.8046875,12.76033591339965,12.760752631578946)"><svg xmlns="http://www.w3.org/2000/svg" xmlns:xlink="http://www.w3.org/1999/xlink" viewBox="0 0 95 95" data-background-color="#ffffff" preserveAspectRatio="xMidYMid meet" height="128" width="128"><g id="tight-bounds" transform="matrix(1,0,0,1,-0.24011564828123255,-0.24049999999999727)"><svg viewBox="0 0 95.48023129656247 95.481" height="95.481" width="95.48023129656247"><g><svg viewBox="0 0 95.48023129656247 95.481" height="95.481" width="95.48023129656247"><g><svg viewBox="0 0 95.48023129656247 95.481" height="95.481" width="95.48023129656247"><g><svg viewBox="0 0 95.48023129656247 95.481" height="95.481" width="95.48023129656247"><g><svg viewBox="0 0 95.48023129656247 95.481" height="95.481" width="95.48023129656247"><g><svg viewBox="0 0 95.48023129656247 95.481" height="95.481" width="95.48023129656247"><g><svg xmlns="http://www.w3.org/2000/svg" xmlns:xlink="http://www.w3.org/1999/xlink" version="1.0" x="0" y="0" viewBox="9.999647214649833 9.99900313038172 80.00135278535018 80.00199686961828" enable-background="new 0 0 100 100" xml:space="preserve" height="95.481" width="95.48023129656247" class="icon-icon-0" data-fill-palette-color="accent" id="icon-0"><path fill="none" stroke="#ffffff" stroke-linecap="round" stroke-linejoin="round" stroke-miterlimit="10" d="M18.726 36.705c-0.958 0.065-2.033-0.089-3.099-0.406C16.693 36.616 17.768 36.771 18.726 36.705z"/><path fill="none" stroke="#ffffff" stroke-linecap="round" stroke-linejoin="round" stroke-miterlimit="10" d="M29.664 55.319c0.071 0.975-0.091 2.077-0.425 3.166C29.573 57.396 29.735 56.294 29.664 55.319z"/><path fill="none" stroke="#ffffff" stroke-linecap="round" stroke-linejoin="round" stroke-miterlimit="10" d="M65.275 37.336c0.961-0.066 2.039 0.093 3.104 0.41C67.314 37.429 66.236 37.27 65.275 37.336z"/><path fill="none" stroke="#ffffff" stroke-linecap="round" stroke-linejoin="round" stroke-miterlimit="10" d="M58.237 20.341c0.727-0.631 1.381-1.506 1.904-2.484C59.618 18.835 58.964 19.71 58.237 20.341z"/><path fill="none" stroke="#ffffff" stroke-linecap="round" stroke-linejoin="round" stroke-miterlimit="10" d="M32.665 82.67c0-4.059-3.28-7.335-7.333-7.335C29.385 75.335 32.665 78.611 32.665 82.67z"/><path fill="none" stroke="#ffffff" stroke-linecap="round" stroke-linejoin="round" stroke-miterlimit="10" d="M69.854 79.001c0-1.289-0.228-2.522-0.638-3.666C69.626 76.479 69.854 77.712 69.854 79.001z"/><path fill="none" stroke="#ffffff" stroke-linecap="round" stroke-linejoin="round" stroke-miterlimit="10" d="M52.687 68.004c-6.076 0-10.996 4.923-10.996 10.993C41.691 72.927 46.61 68.004 52.687 68.004z"/><path fill="none" stroke="#ffffff" stroke-linecap="round" stroke-linejoin="round" stroke-miterlimit="10" d="M73.526 90.001c4.048 0 7.331-3.283 7.331-7.331 0-4.056-3.283-7.335-7.331-7.335h-4.311C67.704 71.063 63.649 68 58.86 68h-6.167c-2.542-4.382-7.265-7.334-12.69-7.334-8.103 0-14.669 6.566-14.671 14.669h-4.188c-4.048 0-7.334 3.279-7.334 7.335 0 4.048 3.287 7.331 7.334 7.331H73.526z"/><path fill="none" stroke="#ffffff" stroke-linecap="round" stroke-linejoin="round" stroke-miterlimit="10" d="M71.463 44.471c2.598-0.19 3.32-1.933 1.615-3.9-1.078-1.244-2.87-2.277-4.699-2.825-0.241-2.718-0.796-5.35-1.605-7.862-7.189 4.034-11.499 12.079-10.552 20.561 3.576-2.081 6.921-4.52 9.977-7.269C67.866 44.064 69.836 44.584 71.463 44.471z"/><path fill="none" stroke="#ffffff" stroke-linecap="round" stroke-linejoin="round" stroke-miterlimit="10" d="M41.534 55.198c-2.872-14.441 6.508-28.477 20.954-31.35 0.523-0.104 1.044-0.155 1.567-0.228-1.127-2.046-2.426-3.986-3.914-5.763 0.91-1.678 1.443-3.676 1.327-5.316-0.187-2.598-1.934-3.325-3.9-1.619-1.227 1.071-2.253 2.832-2.804 4.637-14.183 0.744-27.059 6.408-36.958 15.306-1.667-0.885-3.64-1.405-5.266-1.292-2.6 0.186-3.323 1.933-1.614 3.9 1.079 1.244 2.87 2.277 4.701 2.825 0.667 7.534 3.647 14.403 8.232 19.885-0.904 1.682-1.44 3.68-1.327 5.323 0.186 2.597 1.933 3.317 3.902 1.612 1.228-1.068 2.253-2.829 2.804-4.634 4.342-0.231 8.563-0.924 12.614-2.026C41.746 56.039 41.619 55.629 41.534 55.198z"/><path fill="none" stroke="#ffffff" stroke-linecap="round" stroke-linejoin="round" stroke-miterlimit="10" d="M81.115 68.686c-11.348 2.261-22.375-5.112-24.632-16.457-2.257-11.348 5.112-22.375 16.457-24.632 3.366-0.668 6.697-0.476 9.787 0.399-5.712-3.903-12.919-5.605-20.239-4.148-14.446 2.873-23.826 16.909-20.954 31.35 0.415 2.088 1.087 4.052 1.935 5.905 3.931 0.958 7.245 3.482 9.225 6.896h6.167c4.789 0 8.844 3.063 10.355 7.335h4.311c0.593 0 1.157 0.09 1.712 0.221 6.253-1.84 11.393-5.826 14.762-10.983C87.485 66.567 84.481 68.018 81.115 68.686z"/><path fill="none" stroke="#ffffff" stroke-linecap="round" stroke-linejoin="round" stroke-miterlimit="10" d="M15.625 10.626l8.75 8.75L15.625 10.626z"/><path fill="none" stroke="#ffffff" stroke-linecap="round" stroke-linejoin="round" stroke-miterlimit="10" d="M15.625 19.376l8.75-8.75L15.625 19.376z"/><path fill="none" stroke="#ffffff" stroke-linecap="round" stroke-linejoin="round" stroke-miterlimit="10" d="M80.626 15.625l3.752 3.751L80.626 15.625z"/><path fill="none" stroke="#ffffff" stroke-linecap="round" stroke-linejoin="round" stroke-miterlimit="10" d="M80.626 19.376l3.752-3.751L80.626 19.376z"/><path fill="none" stroke="#ffffff" stroke-linecap="round" stroke-linejoin="round" stroke-miterlimit="10" d="M76.878 51.874l6.25 6.249L76.878 51.874z"/><path fill="none" stroke="#ffffff" stroke-linecap="round" stroke-linejoin="round" stroke-miterlimit="10" d="M76.878 58.123l6.25-6.249L76.878 58.123z"/><path fill="none" stroke="#ffffff" stroke-linecap="round" stroke-linejoin="round" stroke-miterlimit="10" d="M13.125 63.126l3.751 3.748L13.125 63.126z"/><path fill="none" stroke="#ffffff" stroke-linecap="round" stroke-linejoin="round" stroke-miterlimit="10" d="M13.125 66.874l3.751-3.748L13.125 66.874z"/></svg></g></svg></g></svg></g></svg></g></svg></g><g/></svg></g><defs/></svg><rect width="95.48023129656247" height="95.481" fill="none" stroke="none" visibility="hidden"/></g></svg></g></svg>